/* XPM */
static char *_674496054709[] = {
/* columns rows colors chars-per-pixel */
"64 64 79 1 ",
"  c #84BBC3",
". c #81B9C1",
"X c #80B7BF",
"o c #85BCC4",
"O c #82B9C1",
"+ c #80B8C0",
"@ c #83BBC3",
"# c #83BAC2",
"$ c #81B8C0",
"% c #7FB7BF",
"& c #91C5CD",
"* c #86BDC5",
"= c #93C7CF",
"- c #8ABFC7",
"; c #82BAC2",
": c #8EC3CB",
"> c #8DC2CA",
", c #8BC0C8",
"< c #90C5CD",
"1 c #A1D2DA",
"2 c #8BC1C9",
"3 c #A0D1D9",
"4 c #9DCFD7",
"5 c #9ACDD5",
"6 c #A6D6DE",
"7 c #A4D4DC",
"8 c #9CCED6",
"9 c #9BCDD5",
"0 c #94C8D0",
"q c #9FD0D8",
"w c #A5D5DD",
"e c #9ECFD7",
"r c #97CAD2",
"t c #9DCED6",
"y c #A4D5DD",
"u c #9FD1D9",
"i c #89BFC7",
"p c #8CC1C9",
"a c #9ED0D8",
"s c #98CBD3",
"d c #A7D7DF",
"f c #95C8D0",
"g c #86BCC4",
"h c #92C6CE",
"j c #A5D6DE",
"k c #8FC4CC",
"l c #A2D3DB",
"z c #95C9D1",
"x c #96CAD2",
"c c #99CCD4",
"v c #88BEC6",
"b c #90C4CC",
"n c #8CC2CA",
"m c #96C9D1",
"M c #87BDC5",
"N c #99CBD3",
"B c #87BEC6",
"V c #A3D3DB",
"C c #8DC3CB",
"Z c #A0D2DA",
"A c #A3D4DC",
"S c #97CBD3",
"D c #A8D8E0",
"F c #A6D7DF",
"G c #9BCED6",
"H c #9ACCD4",
"J c #8AC0C8",
"K c #A8D7DF",
"L c #84BAC2",
"P c #85BBC3",
"I c #9CCFD7",
"U c #88BFC7",
"Y c #A2D2DA",
"T c #8FC3CB",
"R c #A1D3DB",
"E c #94C7CF",
"W c #91C6CE",
"Q c #89BEC6",
"! c white",
/* pixels */
" .X. ooooooooooooooooO++@oooooooooooooooo#++#oooooooooooooooo $%",
"++X+++++++++++++++++++X++++++++++++++++++++++++++++++++++++++++%",
"&*%o&================-+;:================>O+,================< %",
"1>%2345555516785555910$o4q55555q6we5555539 .r195555ty6355555eui%",
"u:%pap#@@@osd3i#@@@*5f$g8h @@@ &jyk@@@@ 09 Orso@@@#2ldz @@@@:ai%",
"a:%p4i%%%%.xdq*%%%%;cf$g8k+%%%%:jyp%%%%+h9 Orr.%%%%v1d=+%%%%24i%",
"a:%p4i%++%.xdq*%++%#cf$g8b+%+%+kjyn%%+%+h9 OrrO%++%v1d=$%+%%24i%",
"a:%p4i%++%.xdq*%++%#cf$g8b+%+%+kjyn%%+%+h9 OrrO%++%v1d=$%+%%24i%",
"a:%p4i%%%%.mdqg%%%%;cf$g8k%%%%%:jyp%%%%+h9 Orx.%%%%v1d=+%%%%24i%",
"u:%pa>ooooMNd3,oooov9f$g8=goooghjy<oooo*z9 OrcBoooo>ldx*ooookai%",
"VC%plZaaaaqAdj3aaaauAf$galaaaaaldd1aaaaaV8 OSAqaaaa36dVaaaaa11i%",
"yC%2ADdddddddddddddddf$oaDddddddddddddddD8 .SdddddddddddddddDli%",
"lC%p19xrrxr3d7cxrrxs1f$g4errrrr4F68rrrrrqG Or3SxrrxHwdqrrrrx83i%",
"q:%p4J....#rduv.... cf$g8&O...Objy>....;=9 Orr@....i1d0;....n4i%",
"a:%p4i%%%%.xdq*%%%%#cf$g8k+%%%+:jyp%%%%+h9 Orr.%%%%v1d=+%%%%24i%",
"a:%p4i%++%.xdq*%++%#cf$g8b+%+%+kjyn%%+%+h9 OrrO%++%v1d=$%+%%24i%",
"a:%p4i%++%.xdq*%++%#cf$g8b+%+%+kjyn%%+%+h9 OrrO%++%v1d=$%+%%24i%",
"a:%p4i%%%%.mdqg%%%%;cf$g8k+%%%%:jyp%%%%+h9 Orx.%%%%v1d=+%%%%24i%",
"3:%pq<iiiiJ5K1:iiii28z$g4ziiiiif6w=iiiiJr9 Or9,iiiikVdsJiiiihai%",
"qp%Jaq44444ZAla4444e3h+o5344444uAlq444443N#.f344444alA344444q4v%",
"JL%#J2222222222222222g+.v2222222222222222v$+*2222222222222222iO%",
"%%X%%%%%%%%%%%%%%%%%%%XX%%%%%%%%%%%%%%%%%%XX%%%%%%%%%%%%%%%%%%X+",
">P% >::::::::::::::::M+O,::::::::::::::::-.+v::::::::::::::::p#%",
"3n%,3aIIII41wAeIIII41=+o83IIIIIuy7qIIII43H .m14IIIIaAwZ4IIIIqaU%",
"3:%pa:****vcdZp****i9z$gI0M***M=6w&****Bm9 OrHv****>ldrB****<ai%",
"a:%p4i%%%%.mdqg%%%%;cf$g8k%%%%%:jyp%%%%+h9 Orx.%%%%v1d=+%%%%24i%",
"a:%p4i%++%.xdq*%++%#cf$g8b+%+%+kjyn%%+%+h9 OrrO%++%v1d=$%+%%24i%",
"a:%p4i%++%.xdq*%++%#cf$g8b+%+%+kjyn%%+%+h9 OrrO%++%v1d=$%+%%24i%",
"a:%p4i%%%%.xdq*%%%%#cf$g8k+%%%%:jyp%%%%+h9 Orr.%%%%v1d=+%%%%24i%",
"u:%pe2;### sdui;###gHf$g8h#####&jy:####@09 Orso###;J1dz ####>ei%",
"lC%p14H5555Ydy8H5559lf$g4u55555qd6a555553G OrY9555H4wd15555Ha3i%",
"yC%2ADDDDDDKdKDDDDDDdf$oaDDDDDDDddDDDDDDD8 .SdDDDDDDKdKDDDDDDli%",
"lC%p1aGGGG8ldw4GGGG8lf$ge3GGGGG3d6qGGGGG18 Orl8GGGGejd18GGGGqZi%",
"u:%pap#@@@osd3i#@@@*5f$g8h @@@ &jyT@@@@ 09 Orso@@@#2Rdz @@@@:ei%",
"a:%p4i%%%%.xdq*%%%%;cf$g8k+%%%%:jyp%%%%+h9 Orr.%%%%v1d=+%%%%24i%",
"a:%p4i%++%.xdq*%++%#cf$g8b+%+%+kjyn%%+%+h9 OrrO%++%v1d=$%+%%24i%",
"a:%p4i%++%.xdq*%++%#cf$g8b+%+%+kjyn%%+%+h9 OrrO%++%v1d=$%+%%24i%",
"a:%p4i%%%%.mdqg%%%%;cf$g8k%%%%%:jyp%%%%+h9 Orx.%%%%v1d=+%%%%24i%",
"u:%pa>ooooMNd32oooov9z$gI=gooogh6w<oooo*z9 OrcBoooo>ldx*ooookai%",
"1>%,3a888881jA4888841E$o8388888uwyq8888835 .m188888e7wZ88888qqi%",
":o% :<<<<<<bbbb<<<<<kv+Op<<<<<<bbbb<<<<<b,.+ib<<<<<bbbb<<<<<<>#%",
"+XXX+++++++++++++++++XXXX++++++++++++++++XXXX++++++++++++++++XX+",
"i#%#iJJJJJJJJJJJJJJJ-P+.BJJJJJJJJJJJJJJJJM$+gJJJJJJJJJJJJJJJJvO%",
"ap%Jea444443l1a4444e3h+oHu44444ullq444443s#.0344444a1l344444q4v%",
"3:%pq&JJJJp9D1kJJJJ>4z$g4mJJJJJz6w=JJJJ2sG OS9pJJJJ<Adc2JJJJ=qi%",
"a:%p4i%%%%.mdq*%%%%;cf$g8k+%%%%:jyp%%%%+h9 Orr.%%%%v1d=+%%%%24i%",
"a:%p4i%%%%.xdq*%%%%#cf$g8b+%%%+kjyp%%%%+h9 OrrO%%%%v1d=+%%%%24i%",
"a:%p4i%++%.xdq*%++%#cf$g8b+%+%+kjyn%%+%+h9 OrrO%++%v1d=$%+%%24i%",
"a:%p4i%%%%.xdq*%%%%#cf$g8b+%%%+:jyp%%%%+h9 Orr.%%%%v1d=+%%%%24i%",
"q:%p4J$...#rduB$... cf$g8<.....kjy>....O=9 Orr#...$i1d0O....p4i%",
"1C%pZczzzzmudAszzzzr3f$g4tzzzzz8669zzzzzeG Or3mzzzzcydamzzzz93i%",
"7C%2Addddddddddddddddf$oaKddddddddddddddd8 .SdddddddddddddddKli%",
"AC%pl1uuuu37d61uuuu37f$gaVuuuuulddluuuuuA8 OS73uuuu16dA3uuuul1i%",
"u:%pa:****vcd3p****i9f$g8EM***M=6y&****Mm9 Orcv****>ldrB****bai%",
"a:%p4i%%%%.mdqg%%%%;cf$g8k%%%%%:jyp%%%%+h9 Orx.%%%%v1d=+%%%%24i%",
"a:%p4i%++%.xdq*%++%#cf$g8b+%+%+kjyn%%+%+h9 OrrO%++%v1d=$%+%%24i%",
"a:%p4i%++%.xdq*%++%#cf$g8b+%+%+kjyn%%+%+h9 OrrO%++%v1d=$%+%%24i%",
"a:%p4i%%%%.xdq*%%%%#cf$g8k+%%%%:jyp%%%%+h9 Orr.%%%%v1d=+%%%%24i%",
"u:%pe2;### sd3i;###gHf$g8h#####&jy:####@09 Orso###;J1dz ####>ei%",
"1>%2Z8ccccc1d79cccc510$o4qccccca6j4cccccu9 .r1Hcccc8yF3ccccc4ui%",
"hM%ghf000000000000000,+#bf000000000000000:O$p000000000000000fWP%",
"++X+++++++++++++++++++X++++++++++++++++++++++++++++++++++++++++%",
"gO%Oo****************#+$P**************** ++#****************o.%",
"9J%Q54IIII44a44IIII44b+ r4IIIII4aa4IIIII4f#.h44IIII44a4IIIII4cM%"
};
