/* XPM */
static char *_672913960983[] = {
/* columns rows colors chars-per-pixel */
"64 64 234 2 ",
"   c #040302",
".  c #090705",
"X  c #0A0906",
"o  c #080808",
"O  c #0C0B0B",
"+  c #130D09",
"@  c #16110D",
"#  c #1A120D",
"$  c #0F1010",
"%  c #181413",
"&  c #251C15",
"*  c #291D18",
"=  c #29201A",
"-  c #2C221A",
";  c #36261B",
":  c #33261D",
">  c #1D1E21",
",  c #261F28",
"<  c #1F2023",
"1  c #2A2528",
"2  c #352823",
"3  c #3B2D23",
"4  c #3B3228",
"5  c #312D37",
"6  c #363633",
"7  c #3B3835",
"8  c #422E2C",
"9  c #473529",
"0  c #44352A",
"q  c #4D3B2D",
"w  c #533C2E",
"e  c #483A36",
"r  c #543B36",
"t  c #5D3D3E",
"y  c #5F402C",
"u  c #44433C",
"i  c #4F4339",
"p  c #554334",
"a  c #594435",
"s  c #5A463A",
"d  c #61422D",
"f  c #674737",
"g  c #634D3D",
"h  c #724E39",
"j  c #66523E",
"k  c #75533E",
"l  c #3C3A42",
"z  c #443D48",
"x  c #5E3F40",
"c  c #484548",
"v  c #5C4342",
"b  c #57544C",
"n  c #4C4A54",
"m  c #514C56",
"M  c #5A5A56",
"N  c #624342",
"B  c #694A46",
"V  c #704F49",
"C  c #6C5442",
"Z  c #695649",
"A  c #725444",
"S  c #725C46",
"D  c #79594A",
"F  c #6C4853",
"G  c #6D585A",
"H  c #775A55",
"J  c #7B624B",
"K  c #65625D",
"L  c #7B6859",
"P  c #555163",
"I  c #6E5B6B",
"U  c #6A6867",
"Y  c #6D6D65",
"T  c #746A68",
"R  c #727166",
"E  c #7F7164",
"W  c #72726A",
"Q  c #766474",
"!  c #7B7B73",
"~  c #787875",
"^  c #815B48",
"/  c #835D54",
"(  c #84624C",
")  c #8A654D",
"_  c #8A664C",
"`  c #9B724A",
"'  c #886756",
"]  c #8E6655",
"[  c #856A52",
"{  c #8E6955",
"}  c #936957",
"|  c #916B56",
" . c #936D59",
".. c #8C7156",
"X. c #8E7258",
"o. c #957156",
"O. c #977657",
"+. c #96725C",
"@. c #9A755E",
"#. c #9C795E",
"$. c #A0784F",
"%. c #A3785C",
"&. c #89716F",
"*. c #857A6C",
"=. c #9C7760",
"-. c #9E7A61",
";. c #97796B",
":. c #A17E63",
">. c #AD7E64",
",. c #7F8074",
"<. c #B1855E",
"1. c #9F8064",
"2. c #828277",
"3. c #83837C",
"4. c #8D8D7D",
"5. c #99837A",
"6. c #90907F",
"7. c #A58365",
"8. c #A88667",
"9. c #AB8967",
"0. c #A78668",
"q. c #A88768",
"w. c #A78869",
"e. c #AC8A69",
"r. c #B08E6B",
"t. c #B88968",
"y. c #B4936E",
"u. c #B9976F",
"i. c #A78573",
"p. c #B69670",
"a. c #B99671",
"s. c #BB9A71",
"d. c #BDA07D",
"f. c #C18E6C",
"g. c #C7936C",
"h. c #CC9671",
"j. c #C49A75",
"k. c #D59D75",
"l. c #D49F7A",
"z. c #C6A479",
"x. c #DBA37B",
"c. c #796F87",
"v. c #7A7682",
"b. c #8E5E85",
"n. c #8D678C",
"m. c #916189",
"M. c #897983",
"N. c #927D88",
"B. c #996C95",
"V. c #917995",
"C. c #A4779A",
"Z. c #AA7BA8",
"A. c #B07FAD",
"S. c #8E8E83",
"D. c #8B888C",
"F. c #9B8889",
"G. c #929283",
"H. c #93938C",
"J. c #898495",
"K. c #968A97",
"L. c #9C9C93",
"P. c #97969C",
"I. c #AD9590",
"U. c #A3A39B",
"Y. c #A4A499",
"T. c #BAA493",
"R. c #9186A3",
"E. c #948EA6",
"W. c #948CAC",
"Q. c #9993B3",
"!. c #9C94B4",
"~. c #A987A8",
"^. c #A796A6",
"/. c #B787B7",
"(. c #B887B8",
"). c #BB8ABB",
"_. c #A29BB6",
"`. c #B99BBC",
"'. c #AEAEA6",
"]. c #A4A3AB",
"[. c #B3ACA5",
"{. c #B1B1A9",
"}. c #B3B1A8",
"|. c #AAA6B9",
" X c #B5A9B9",
".X c #B5B2B8",
"XX c #C49C82",
"oX c #CCA386",
"OX c #DAA783",
"+X c #DEA985",
"@X c #CBA997",
"#X c #C6AD9A",
"$X c #D7B39E",
"%X c #E2AE8A",
"&X c #E3B18E",
"*X c #E4B392",
"=X c #E8B99A",
"-X c #CAB9AC",
";X c #D6BCAA",
":X c #CAB8B3",
">X c #E6BDA7",
",X c #D6C0AF",
"<X c #DAC2B0",
"1X c #EBC2A8",
"2X c #F2C8AD",
"3X c #E8C8B3",
"4X c #F5CDB5",
"5X c #F8CFB7",
"6X c #F7D0B8",
"7X c #F9D1B9",
"8X c #ADA7C3",
"9X c #B5ABC6",
"0X c #B9B3CB",
"qX c #BEB8D0",
"wX c #C3ABC9",
"eX c #C2BBCB",
"rX c #C4BCD4",
"tX c #BFC0C8",
"yX c #CDC9CF",
"uX c #CDC6D6",
"iX c #C8C5D9",
"pX c #D2C4DB",
"aX c #D2CADA",
"sX c #EFDCD6",
"dX c #CFCDE2",
"fX c #D6D2E3",
"gX c #DAD7E7",
"hX c #D8D6EA",
"jX c #DCDAEC",
"kX c #E1DEF0",
"lX c #E4E4F4",
"zX c #E8E7F7",
"xX c #EAEAF9",
"cX c #F1F0F8",
/* pixels */
"8.8.8.0.0.:.@. .] ] } ] ] ] ]  .+.-.0.8.8.8.0.8.8.0.w.e.e.e.q.q.q.q.0.q.0.q.q.7.#. .] ] ] ] } ] ]  . .=.8.8.8.7.w.w.0.8.w.e.0.e.",
"8.8.7.-.:.-.+.{ ] ] ] ] } ] ]  . .@.-.:.-.7.8.8.8.0.w.e.r.r.w.q.q.q.0.0.:.:.:.-.+.} ] ] ] ] ] ] ] ] ] @.-.%.-.7.8.0.0.e.q.e.r.e.",
"7.7.@.+. . . .{ ] ] ] ] ] ] ] ] } +.+.@.-.7.8.e.e.w.e.r.y.y.e.8.q.q.q.0.=.@.+. . .{ { ] ] ] ] ] ] ]  . . .+.@.:.7.e.w.w.e.e.p.s.",
"#.#.@.@.+.+. .] ] ] ] ] ] ]  .@.#.:.:.7.8.e.r.r.e.w.w.e.r.e.q.7.:.:.-.=.=.@.@.@. .} ] ] ] ] ]  .}  .@.:.:.7.8.e.e.r.e.w.e.e.e.e.",
"#.-.7.7.7.-.@... .{ {  . . .=.7.9.y.p.u.s.z.z.u.e.q.8.:.:.:.7.7.-.@.#.#.:.7.7.:.@. . .{ { }  . .+.:.8.e.y.u.u.s.a.p.e.0.0.7.-.-.",
"r.p.s.s.r.7.-.@.@.@.=.@.-.7.e.y.u.u.u.p.X.j g s s i g J :.:.1.7.:.:.8.y.s.s.y.0.:.#.@.+.=.@.#.7.8.r.y.s.a.s.a.s.p.r.:.-.=.=.=.-.",
"z.z.z.z.p.e.w.8.0.7.0.8.e.y.a.s.p.y.y.y.p # X X . X + * f -.7.7.8.e.s.z.z.z.a.r.9.8.8.0.8.7.9.e.u.s.s.y.r.e.e.e.e.0.-.@.+.=.-.:.",
"j.z.z.s.r.e.r.p.a.y.r.e.r.y.p.a.y.9.J S i 7 6 6 7 6 6 6 e [ ;...;.y.d.oXoXz.p.r.e.y.p.y.y.e.9.y.y.a.y.r.w.:.:.7.0.:.=.#.=.-.7.q.",
"r.p.p.e.q.e.y.p.s.s.y.e.e.q.q.e.e.#.2 @ M S.L.H.H.H.H.*.K K i q B L L L L ..O.8.r.s.s.s.p.e.w.w.0.0.0.7.-.-.-.-.:.0.7.:.-.7.8.0.",
"0.0.0.7.-.:.q.p.p.y.e.0.:.-.@. .[ S @   M L.{.{..X{..XU.2.W u 6 4 7 7 7 u v L 1.1.9.y.s.u.r.7.1.=.=.=.=.=.=.-.-.7.0.8.7.-.-.:.7.",
"7.7.-.=.=.+.-.7.e.e.e.7.-.+. .A 1 & o   c W S.U.{.{.}.'.Y.L.3.! ,.,.! ! ,.3.H.*.Z j J [ ..O.#.O. . .{  .X.=.-.0.e.e.e.9.%.@.@.#.",
"0.7.=.=. . . .=.:.0.0.7.#.{ / a % $ $ $ u U 3.U.{.'.'.{.}.'.{..X{.{..X{.{.}..X,.7 - 3 0 i s L [ ( ' { {  .@.7.8.q.e.y.e.7.+.{ { ",
"e.w.7.=.+. .@.=.-.8.w.8.@.g 0 e K K K K ,.S.L.'.{.{.'.{.'.{.'.'.{.{.'.'.{.'.{.L.Y M K M K K ,.i 0 V  .@.+.#.8.8.e.9.9.8.#..._ _ ",
"p.p.r.q.7.-.-.:.8.w.w.9.+.3 o 7 '.{.{.{.{.{.'.'.{.'.{.'.'.{.{.{.{.{.{.'.{.{.'.'.{.{.{.{.{.{.U.< O a +.=.-.7.8.8.8.:.` _ _ _ { O.",
"s.u.y.e.7.:.7.8.e.e.e.e.X.3   6 H.H.'.'.{.'.'.{.'.{.{.'.{.{.'.}.'.{.{.{.'.'.'.{.{.{.{.'.{.{.U.b 7 i B S @.8.7.w.7.@.| ( _ _ #.9.",
"r.9.7.:.@.-.-.e.y.y.r.7...:   1 Y W U.'.{.'.{.'.{.'.{.{.'.}.{.{.{.'.'.{.{.{.{.{.{.{.{.{.{.{.'.G.6.u O & ( :.7.8.7.1.O.o.O.1.e.u.",
":.%.#.@.@.#.:.8.8.7.#.` ( :   1 R ,.H.L.'.'.'.{.}.}.'.'.{.'.'.'.{.'.'.{.'.{.'.{.'.{.{.'.{.Y.Y.G.S.u X & ( -.-.7.0.0.q.0.0.e.y.u.",
"+.#.#.:.:.7.8.%.O._ ( _ D : o 2 ,.4.,.W G.'.{.'.'.'.'.}.'.}.}.}.'.'.{.{.{.{.'.}.{.'.{.'.Y.G.G.6.6.u o = [ :.=.:.7.q.q.w.q.q.e.r.",
"@.#.7.7.8.w.8.#.o._ ( _ _ 0 @ 6 ,.,.W R H.'.'.'.U.'.'.Y.'.{.}.}.{.'.'.{.'.'.'.U.'.U.'.U.Y.6.4.6.6.u o = { q.0.e.e.r.e.w.8.7.7.%.",
"-.7.7.8.8.w.w.8.7.#.#.1.7.O.[ j = = R 4.L.{.U.,.! ! ! S.'.{.<X3X;X{.'.'.{.S.! ! ! ! ! ,.,.4.4.4.6.u o =  .y.a.s.s.p.e.w.8.7.@.+.",
"@.#.-.-.7.w.8.w.w.9.r.y.p.u.r.S X O R 6.L.{.U.,.W W W 2.'.{.3X4X,X{.{.{.}.S.W R W W W W ,.4.4.4.6.u o = [ e.a.a.s.p.e.7.-.=. .{ ",
" . .+.=.:.8.9.8.w.r.y.s.s.s.y.S X O R 6.4.,.G.Y.#X#X#X-X<X<X-X:X,X<X,X{.}.[.#X#X#X#X#X#XI.,.,.4.6.u o & ( 7.0.e.w.w.0.1.@.X. .] ",
"]  .+.-.7.8.0.e.w.9.y.u.s.s.y.J X O R G.! Y 4.;X7X7X4X7X7X4X-X'.:X4X3X}.'.<X4X6X4X6X6X4X#XW W 4.6.u o = J :.=.=.-.:.7.-.=.+. .] ",
" .@.-.7.8.8.0.0.w.w.w.9.e.r.r.J 2 - u u L #.T.1X7X7X7X4X4X4X<X-X3X7X4X<X-X3X6X6X6X6X6X4X$Xi.;.b b 4 - 0 ..-. .+.=.-.7.0.0.-.=. .",
"#.:.:.q.e.0.0.0.q.0.:.-.9.y.s.1.s r @   A g.%X2X7X7X6X7X6X4X6X4X4X4X7X4X4X4X7X4X5X5X7X7X>Xl.t.: . 1 r B @.:.#.=.=.-.0.q.q.7.:.-.",
":.0.q.q.0.q.e.q.8.7.-.:.1.X..._ / A @   k h.OXoX@X>X6X6X6X6X6X6X7X4X4X7X4X7X7X4X5X2X>XoXOXl.f.*   8 ^ ^ A C  .:.:.:.:.7.0.q.w.q.",
"0.q.q.q.0.8.0.e.e.q.:.0.#.p # w f.t.&   k h.f./ V T.sX5X5X5X5X5X7X6X6X4X7X4X4X7XsX>X;.V } k.f.* . f h.@.: @ C :.-.=.@.:.7.e.p.p.",
"0.e.r.e.7.>.8.e.e.e.e.r.1.4 . 9 h.g.3 X k a.t.B N >.>X>X4X6X2X2X4X6X4X2X4X4X4X4X>X@X&.t / j.t.2 @ D k.%.&   g :.+. . . .:.8.9.9.",
"r.a.u.r.7.%.:.e.y.y.a.a.-.4 . 9 k.h.B 8 V *.T B x F / ;.5X7X*X%X=X5X2X&X+X1X7X$X;.V B x Z *.E t 9 } x.>.&   g #. .} } +.:.:.#.o.",
"y.s.s.r.:.-.-.7.e.y.a.t.@.9 + 9 f.f.V N G W L B N B N &.>X>X+Xk.*X5X2XOXk.*X1XT.H t N N Z T U B N } h.$.: O j :.#. . .#.:.-.| ( ",
"r.y.r.e.7.=.#.#.:.:.:.:.+.A a r w w t x { i.8.| / F. XF.Z Z t.l.*X5X2XOXk...B T ].[.;.^  .r.0.V t t r w g C X.:.:.:.#.7.7.7.O.` ",
"9.8.7.:.-.=. . .} }  . .} { ] f O . 9 x %.k.h.$.%.;XcX].$ % +.x.*X5X2X+Xk.p . m iXsXT.` t.l.h.D t * + * ' 0.:.:.:.0.8.w.w.9.e.e.",
"7.:.=. .@.+. .{ ] ] ] ] ] ] } A 0 9 t x %.k.h.f.f.$XsX:XT ' XX*X>X5X4X=X*X0.H 5.yXsX+X<.g.k.h.D x r 8 t { @.#.:.8.w.w.w.e.e.y.p.",
"-.=.=.=.@.+. .{ ] ] ] ] ] ]  . .@.+.B x } k.x.k.x.=XsX4X2X2X5X5X5X5X5X5X5X4X3X4X7X2X&Xk.k.x.h.V x D } @.:.7.8.e.y.e.e.8.8.e.e.e.",
"-.:.0.7.:.=.@.{ { { ] }  . .@.:.e.e.' D } >.f.h.x.=X7X7X5X5X5X5X5X5X5X5X7X4X7X7X7X2X&Xk.h.>.>.^ A } 7.r.y.y.y.u.y.y.e.8.7.7.7.:.",
"r.r.a.a.e.0.#.@.+.@.@.+.#.7.8.y.y.y.a.t.} V / f.x.=X7X5X5X5X5X5X5X5X5X5X6X6X6X6X5X4X&Xk.t.B V %.8.9.y.u.u.s.s.s.p.r.8.-.-.=.#.#.",
"j.z.z.z.p.9.8.7.7.8.7.7.e.y.s.s.s.r.#.O.V x D t.x.*X2X2X4X4X4X5X2X2X2X5X6X7X4X6X2X>X&Xk.>.x N ..#.e.p.u.r.e.e.r.e.7.#.@.+.@.-.:.",
"z.z.z.j.y.r.r.y.y.y.e.e.r.y.p.s.y.7.0 = 8 t / f.x.%X%X=X4XsX5X5X>X%X&X2X4X7X4X2X%X%Xx.x.>.N r 2 - J y.y.w.1.-.7.:.7.-.@.@.-.:.0.",
"r.p.p.e.9.e.y.s.j.s.y.e.e.w.e.0.1...= O 2 N / t.k.h.h.OX>X4X2X4X=Xk.x.1X4X4X4X=Xl.h.k.h.>.F x % $ p #.7.7.-.#.-.7.7.7.:.:.:.7.0.",
"w.w.w.7.1.1.w.p.u.y.r.e.7.-.-.J 0 e Y v.K.^.F. .) ] / %.f.j.%X*X%Xx.x.%X&XoXj.e.} ] / ] &.I.P.M.3.M 0 p ..#.#.-.7.8.0.7.:.:.:.0.",
"0.8.7.-.+.=.=.7.e.e.e.7.-.+.{ s   % ].aXaXfX XG r x x V ` $.f.k.k.k.k.k.k.>.$.) B x x x &.uXiXfXaXU $ % J #.1.7.0.e.9.7.#.@.#.-.",
"7.7.-.o.{ .. .=.:.0.0.0.+.C r e c n  XuXaXaX XM.Q M.K.F.F.;.=.@.%.%.@.%.:.;.;.F.F.F.&.Q K.uXaXuXuXJ.n l q a [ w.e.e.y.r.8.@...{ ",
"e.8.-.@. .+. .=.:.7.q.q.o.3 o 5 R.Q.qXaXaXaXrX_.Q.iXxXdX_.R.G x t t t t x c.W.9XkXkX0XW.|.aXuXuXuX8XQ.c.>   j w.e.r.y.9.1.o._ ( ",
"p.y.y.8.7.=.-.=.:.q.q.e.+.4   l |.8XiXgXeX X|.Q.Q.rXxXhX9X_.&.F F F F F F V.8XrXkXkX0XW.!..X.XdXaXrX8XV.>   j w.8.#.O.| _ _ _ | ",
"s.s.u.r.0.7.7.q.9.r.9.q.O.3 O c gXlXlXzX[.! ~ R.Q.rXxXlXlXgXZ.b.b.b.b.b.b.:XkXkXzXkX0XW.V.~ 3.dXzXzXxX|.1   j w.7.O._ D ^ _ %.9.",
"y.e.8.:.@.-.:.q.y.u.r.8.[ 3 X n jXlXgXgX].R ~ E.8XrXkXkXzXhX~.b.b.b.m.m.b.wXzXkXkXhXqX!.E.U ~ tXgXjXzX.X1   j w.w.%.o.o.o.O.9.u.",
"8.%.#.@.+.@.7.8.9.9.1.#.[ : . c uXuXP.3.~ Y D.iXjXqX_.0XlXjX~.b.m.b.b.b.b.wXkXhX8X8XrXjX9XW W ,.3.|.fX].1   g 7.w.7.w.7.9.9.u.s.",
"@.O.#.#.:.:.7.:.O._ _ _ J 3 O c eX0X,.Y Y Y H.aXzXqXW.8XlXjXA.m.m.m.m.m.m.wXxXdX_.!.dXkXtXW W Y Y L.rXP.1 X g :.8.9.w.9.9.9.r.r.",
"@.#.7.8.8.8.7.-.o._ ( ) { ( J b c c K W v.J._.hXlXqXW.8XlXkX`.A.Z.Z.Z.Z.A.rXzXdX!.Q.dXxXiXJ.V.~ R M c c Z J o.9.e.e.e.w.w.8.7.:.",
"#.:.7.8.8.8.0.7.-.@.@.#.%.w.w.k O O b Y J.E.8XhXlX0XW.8XlXlXwXA././././.(.pXxXdX!.Q.iXxXdXQ.W.~ R 6 O * ..r.y.p.s.p.e.8.8.7.#.+.",
"=.-.#.:.7.8.q.q.w.e.e.e.y.y.y.X.s q 6 6 l c c.iXxXdXrXqX X`.(.(.(.(.(.(.(.).`.9XqXdXjXlX0Xn c 6 6 e p j @.e.p.a.s.y.e.7.:.@. .] ",
" . .+.#.7.8.q.q.w.e.y.s.s.s.y.9.-.( & . o   z tXcXcXcXiXB.m.A.).(.(./././.C.n./.hXcXcXxX].o O . X s #.#.#.:.q.e.e.e.0.7.=.@. .] ",
" . .@.=.7.8.q.q.9.9.r.u.s.s.y.9.8.X.%   + & e M.].P.P.R.B.C.A.).(.).(./.(.Z.B.C.E.P.P.P.Q * * .   a 1.7.1.O.=.-.-.:.7.7.-.+. .] ",
" .@.:.:.7.q.q.q.w.w.w.9.9.y.y.e.w.+.&   ; h a 2 < < > z Z./.).).).).).).).(.A.b.5 < < < 2 h d + . a 1.9.#.#.@.+.@.-.:.0.7.-.+. .",
"@.:.:.q.q.q.q.q.8.7.1.7.8.y.s.p.e.O.3 * w k f * @ @ @ 8 C.Z.B.n.n.n.B.n.B.C.Z.Q 2 + @ # ; A k 2 : S e.9.1.#.#.=.=.:.0.0.8.7.-.=.",
":.:.q.q.q.q.q.8.8.7.1.#.8.y.s.s.y.-.( ^ A B f d y y y f ] / e , , 5 1 1 , N } ^ f y y d d f B [ X.9.p.9.#.-.-.7.:.:.:.7.0.q.q.q.",
":.q.q.q.0.q.q.q.e.7.:.:.q.r.p.p.e.7.7.e./ r t D ) ^ / ^ h d & X O O O + + 9 f k / / ) / A r f :.s.s.y.q.7.1.7.:.-.=.=.-.7.e.r.p.",
"8.e.r.e.0.0.q.e.e.e.e.e.e.0.e.e.e.0.7.q.N * 7 Q N.N.N.U ; ; q w 9 w a k C 9 ; p &.J.N.M.G * 1 X.e.e.q.q.7.7.7.-.+. . .@.:.q.r.e.",
"e.s.s.r.:.:.:.w.y.p.a.p.q.:.:.:.0.q.q.q.p O 5 c.Q.W.W.Q O + f _ ^ ) %.u.d.p   6 c.Q.W.R.I . @ ( :.:.0.0.w.q.7.-. .]  .@.%.7.#.o.",
"y.s.s.y.:.-.-.0.r.p.a.y.7.=.=.-.7.8.8.e.S q e m P P P c 3 9 h k ^ ) %.j.s.J q e m P P P n e w ' @.=.:.0.q.w.7.-.+. . .#.7.O.| ( ",
"y.y.y.e.8.-.=.=.-.:.7.:.@. . .+.-.7.0.0.0.e.S &       * { o...o.o.@.7.y.u.y.r.k #       2 :.:. .{  .=.:.0.0.0.7.-.-.#.1.7.1.O.o.",
"8.8.7.7.;.=.+. . . .{ { ] ] { } +.-.:.7.7.w.[ 0 * - - p 7.9.7.7.7.8.8.w.8.7.7.J 3 & & & q {  .{ ] ]  .=.-.:.1.7.8.8.8.8.w.w.9.9.",
"8.7.#.+.=. . .{ ] { { { } { ] { {  .+.+.=.-.8.7.7.7.8.e.u.y.e.e.9.8.w.1.-.@.+.X.{ ] / ' ' ] ] { ] ] {  .+.+.@.-.7.8.9.8.9.9.y.u.",
"7.-.o.} ] ' ] { ] ] ] { ] ] ] ] { ] ' { +.-.7.e.8.8.e.y.s.s.y.9.w.8.8.1.@. .{ { ] ] ] ] ] ] { } ] { ] { { ' ..@.7.8.8.9.e.r.s.z."
};
