/* XPM */
static char *_673452419293[] = {
/* columns rows colors chars-per-pixel */
"64 64 97 2 ",
"   c #666A8C",
".  c #717BA0",
"X  c #7581A6",
"o  c #6A7093",
"O  c #636687",
"+  c #6C7397",
"@  c #7682A8",
"#  c #6F789C",
"$  c #646788",
"%  c #676C8E",
"&  c #737EA3",
"*  c #747FA4",
"=  c #686D8F",
"-  c #6F779B",
";  c #6D7598",
":  c #696F91",
">  c #7580A6",
",  c #727CA1",
"<  c #65688A",
"1  c #717A9E",
"2  c #7581A7",
"3  c #6B7194",
"4  c #6B7295",
"5  c #7681A7",
"6  c #70799E",
"7  c #656889",
"8  c #676B8D",
"9  c #727DA2",
"0  c #7480A5",
"q  c #696E91",
"w  c #6E7699",
"e  c #6E769A",
"r  c #646687",
"t  c #686E90",
"y  c #747FA5",
"u  c #737DA2",
"i  c #646789",
"p  c #70799D",
"a  c #7682A7",
"s  c #6C7396",
"d  c #6A7193",
"f  c #717B9F",
"g  c #65698A",
"h  c #666A8B",
"j  c #727CA0",
"k  c #6A6F92",
"l  c #6D7498",
"z  c #737DA3",
"x  c #636586",
"c  c #616384",
"v  c #6C7295",
"b  c #626484",
"n  c #6A7194",
"m  c #626384",
"M  c #686C8E",
"N  c #626485",
"B  c #696E90",
"V  c #66698B",
"C  c #6A7092",
"Z  c #646889",
"A  c #686D90",
"S  c #65698B",
"D  c #626585",
"F  c #696F92",
"G  c #606282",
"H  c #606181",
"J  c #606182",
"K  c #616283",
"L  c #616383",
"P  c #636686",
"I  c #616282",
"U  c #6C7296",
"Y  c #6D7599",
"T  c #6E779B",
"R  c #6C7497",
"E  c #6E7599",
"W  c #6E779A",
"Q  c #6D7497",
"!  c #70789D",
"~  c #747EA4",
"^  c #717A9F",
"/  c #636587",
"(  c #626586",
")  c #666B8C",
"_  c #646688",
"`  c #707A9E",
"'  c #6F779C",
"]  c #686C8F",
"[  c #727BA0",
"{  c #7580A5",
"}  c #737EA4",
"|  c #676C8D",
" . c #666B8D",
".. c #636585",
"X. c #646787",
"o. c #6B7294",
"O. c white",
/* pixels */
"  . X o O + @ # $ % & * = $ - @ ; O : > ,   < 1 2 3 O 4 5 6 7 8 9 0 q O w @ e r t y u 8 i p a s O d 2 f g h j > k O l @ # $ = z ",
"x : 4 g c   v = b r o n $ m M v 8 c 7 3 k x N B 4 V c h 4 t N O C 3 Z c % v % m i 3 o O N A 4   c S 4 q D x F 4 < c 8 v = b $ o ",
"G x r c H b $ D J K O O K J N $ N H L r P I J x $ m H m $ x J I P r L H N $ N H K O O K J x $ b H c r x J G x r c H N $ D J K O ",
"$ U e 8 N A - d x 7 l Y g N C - q N   e + $ O 4 T % b M - 3 x i R w h N : - F N V E l Z x 3 - = b 8 W 4 O $ s e   N t - o D g l ",
"h 1 y k x s > - $ 8 9 & M r e > Q O q * . h 7 p 0 d x 3 > ! Z   j ~ t O ; > E O = & , 8 $ # > 4 x o 0 6 < V ^ * : P + > W $ % , ",
"N % B $ K < :   c x = = / L h : g K O B % N m 8 q i K Z q 8 c N M t O K S : V L O A = ( c ) q 7 K $ q 8 b N % B $ K g :   L x = ",
"K r Z b J N 7 O J L $ $ c J x 7 x J m Z $ K G O 7 N J N 7 O G K $ i c J x 7 x J c $ $ K G O 7 N J N 7 O I K r Z m J D 7 x J L $ ",
"7 E 1 = N k f s O V # !   x 4 f o D % 6 e 7 _ l ^ t N q ^ Q O < T p 8 x 3 f 4 x ) p - g O R f : N = ^ Y $ Z e ` % D o f s x   - ",
"g ! & q x 4 ~ e r ) . , % O ; * s x A u 6 V i ' & C x o & - $ h ^ 9 = P + * l O M , ^   $ e ~ 3 x F & # 7 g p u B x 4 * Y O 8 f ",
"c g 8 x G _ 8 7 K N     N K Z 8 $ I x ) V c L g 8 O G O 8 < K m h ) D I $ 8 i I N   h b K < 8 O G x 8 g L c S 8 x G $ 8 7 K N h ",
"c 7   ( G O   $ K m g V N I $   O G N h g c K 7   x G x   Z K c g h N G _   $ G N V g c K i   O G x   7 K L < h D G O   $ I b g ",
"g # 9 B x 3 & Y r   ^ . 8 O l & v x = , p g $ - u F x o u e $ V 6 , ] x s & R P % [ `   $ e & o x : u - Z g ! , t x 4 & ; O 8 1 ",
"< e . = D o , Q O h ! 6 ) x s , 3 x % ^ - < $ E [ q D : [ ; r g # ^ % x 4 , 4 x 8 ` # V O l j k D t . e $ 7 T f = x d , + P   # ",
"K $ < N J x g O G c Z 7 c J O g x J b 7 $ K I $ < N J N g r I L $ 7 m J x g O J m 7 i L G r g ( J N < $ K K $ < N J x g O G c Z ",
"N ) = O K Z A h L D % % x K S A < K O = 8 N c   = $ K $ =   c N 8 = / K < A g K x M % N L h A i K _ =   m b 8 = O K 7 A V L x % ",
"V 6 * F x v 0 - $ 8 , u M O w { R P B } f h 7 ! y o x 3 0 # i   . & A O l > Y O = z j ) $ - 0 4 x C y p < S ^ * : x s { e r % , ",
"$ + # | N B ! 3 x g w e V D o ! F N ) - l i O s # ] N = # v O Z ; -   N k ! o N h W Y 7 x 4 # A N % # s O $ Q - 8 N q ! 3 x S E ",
"I P $ c H N $ x J K O r K J D $ N H c $ O I J x $ m H b $ x J K O $ L H N $ N J L r O K J x $ b H m $ x G I O $ c H N $ x J K O ",
"x t o 7 L h 3 % m O F k _ c 8 3   L i o q x N = n g L S 3 = N x q o $ c 8 3 8 c $ C : O b ] 3 V L < d A N x B o Z L   3 % m O : ",
"h ^ { C P s 2 # $ | u & = r e 2 l O q y j   7 6 > 3 P 4 X p Z ) , * B O Y 2 w O = * 9 8 $ # X v P o > 1 g V . 0 F O R 2 - $ M u ",
"O o Q h m % ; : N $ 4 s 7 N B ; = b g R 3 O x C l   m 8 l k ( _ 4 + g b = ; A b < s 4 $ N F l 8 m   l o x O 3 R V m % ; q N Z 4 ",
"G x r c H b r D J K O O K H N r N H L O x G J x r c H m r x J I x O L H N r N H K O P K J D r m H c r x J G x O L H b r N J K P ",
"O n l   m % ; : N i U s 7 N q Y = b S Q 3 O x o ;  .m 8 ; C x $ 4 R g b A Y t N < + 4 $ D k ; % m   l o x O 3 Q V b ] ; : N Z 4 ",
"h ^ { C P s 2 # $ | u & = r e 2 l O q y [   7 6 > 3 P 4 X p Z ) , * B O Y 2 w O = ~ 9 8 $ # X 4 P o > 1 g V . 0 F O R 2 - $ M 9 ",
"x A o 7 L h d % m O : F r c 8 n   L i C B x N = o < L g o ] b x q C $ L ) n 8 c $ k q x b % d S L < o = N ( t o Z L   d % c O : ",
"I P $ c H N $ x J K O r L J D $ N H c $ O I G x $ m H b $ x J K O $ L H N $ D J L $ O K J x $ N H m $ x G I O $ c H N $ x J K O ",
"$ R # % N q p 4 x g e W V ( n p F N 8 - ; i O s # = N = ! U O 7 Y -   N C p o D   - E < x 4 p t N % # + r $ l # 8 N : p 3 x S w ",
"V 6 * F x 4 0 T $ 8 , u % O E 0 R P B & ^ h 7 ! y o x 3 y # i   . & A O l 0 ; O = z j ) $ - 0 4 x C * p 7 S ^ ~ q x s 0 e r % , ",
"N   = O K i = V L N | % x K g = 7 K O M 8 N c   = $ K $ = h c N 8 M x K < = g K x % 8 N L h = $ K _ =   c b ) = O K Z = S K ( 8 ",
"K $ < N J x g O G c 7 7 c J O g x J b < $ K K $ g N J D g $ I L i < b J P g O J m 7 Z L G r g ( J N g $ K K $ < N J x g O G c Z ",
"< e . A ..o , Q O h p ` 8 x s , 3 x % f - < $ w j q D : , Y _ g # ^ % x 4 , U x 8 1 ! V O ; , k D B [ e $ 7 - . = x n , + O   ! ",
"g ' 9 B x 3 z Y O   ^ . 8 O Q & 4 x = , p g $ T u F x C u e $ V p j M x s & + P % [ ` h $ w u o x : 9 - Z < # , A x 4 z ; O 8 ` ",
"L 7 h ( G O   $ I m g S N G $   O G N h < c K Z h x J x   i K c g V N G r   $ G N V g c K i   x J x h 7 K L < h N G O   $ I b g ",
"c S 8 x G $ 8 < K N     N K Z | $ I x 8 h m L g 8 O G O 8 g K m h 8 ( I i | i I N )   b K < 8 r G O 8 g L c V 8 x I $ 8 7 K N   ",
"S ! & : x 4 * e r 8 . , % O ; * s x A u ` V Z # & C x o ~ - $ h ^ u = P R * l O M , f   $ e * 3 x F & # 7 g 6 z B x v * E r 8 . ",
"7 Y ` ] N F ^ s P S - #   x 4 ^ o D | p e 7 r l 1 t N B ^ Q O < e p 8 x 3 ^ 3 x ) ! - g O + ^ : N = ` ; $ Z w 6 % D C ^ U x h - ",
"K O Z b J N 7 x J L $ $ L J x 7 ( J c i r K G O Z N J N 7 O G K $ $ c J x 7 x J c $ $ K G O 7 N J b Z O I K r i m J D 7 x J L $ ",
"N % q $ K < : ) c x = t O L   : S K _ B M N m 8 : Z K 7 : 8 m ( = B O L V : h L O t = x c 8 : < K i q % b N % q $ K g :   L x = ",
"h 1 y k P s > - $ 8 9 & = r e X Q O q * . h 7 p { d x 3 > ! Z   j ~ t O ; X E O = & , 8 $ # > 4 x o 0 6 < V f y : P + > T $ % , ",
"$ 4 e 8 b = - o x 7 l ; g N k - B N   w s $ P 4 e % b % W 3 x $ + E h N : - F N S Y Q Z x n T = b 8 e 4 O _ s e   N t - o D < Q ",
"G x r c H b $ D J K O O K H N $ N H L r x I J x r c H m $ x J I P O L H N $ N H K O O K J x $ b H c r x J G x r L H N $ D J K O ",
"x : 4 g c ) s A N _ o 3 $ m = s 8 c 7 4 C O N q v V c   U B N O o 3 Z c % s % m i 3 o O N t U   c S 4 : ( x F 4 < c 8 s = b $ o ",
"h ^ > C P s 2 # $ % u & = r e 2 l O q y j   7 6 X 3 P 4 X p Z ) , * B O Y 2 e r = * 9 8 $ # 2 v P o > ^ g h . 0 F O R 2 - $ M u ",
"O F v g c 8 s A N $ n 3 $ b = s % c < 4 o O D : s h c   s q N O o 4 7 m % s ] m Z 4 o O N B s   c V U : x x k 4 g c 8 s = b $ d ",
"G x r c H b $ D J K O O K H N $ N H L r x G J x r c H m r x J I P O L H N $ N H K O O K J ( X.m H c r x J G x r L H b $ N J K O ",
"$ 4 e ) b = e o D 7 Q ; g N F W B N h E s $ x 3 e 8 b % e 3 x $ s Y V N q W : N S ; R i x o e ] b 8 e 4 O _ U w   b A W C N < R ",
"h ^ 0 k P s > - $ 8 9 & = r e X l O q * . h 7 p > n x 3 > ! Z   , * t O ; X E O = & , 8 $ # > 4 x o 0 ` < V f y : P + X T $ % , ",
"N % : $ K g F 8 c x A B O L   F V L $ q = N b % : Z K 7 : 8 m ( = q O L h F   L O B = x c 8 F < K i : % N N M : $ K S F   c O = ",
"K O i m J N Z x J K $ $ L J x Z D J c $ r K G O Z N H N Z O G K r $ c J x Z x J c $ $ K J P Z N H b i O G K O $ m J N Z x J L $ ",
"Z ; 6 M N F ^ s x S - #   x 4 ^ o D 8 p e 7 r l ` A N B 1 R O < e ! 8 D d ^ 3 x   # T g O s 1 q N = 6 l $ i E p % N C ^ 4 x h - ",
"S p & : x 4 * e $ 8 [ , % O Y * s x t u 1 V Z # ~ o x o * - $ h ^ u = P R * l O M 9 .   $ T * 3 x F & ! 7 g 6 & B x U * w r | . ",
"m V 8 x I $ % < K N   ) N K 7 % $ I x 8 h m L g | O G O % g L b   8 x I i % Z K ( 8   N K g % _ I O 8 S c c h 8 x I $ % 7 K N   ",
"L 7 V D J O h $ I m g g b G $ h O G N V 7 L K i h x J x h i K c < S N G O h r G N S < c K $ h x J ( h Z K L 7 V N J O h $ G m g ",
"g - , B x 3 u Y O   1 f 8 O Q u 4 x = , ! g $ e 9 F x C u e $ V p [ M x s u + x % . 6 h r E u o x q 9 - Z < # , A x 3 u l O 8 ` ",
"< W [ A x o , l O   p 1 8 x s , 3 x M . # g $ w , q ..F , Y $ g # f % x 4 , s x 8 ^ p V r ; , C ..B j e $ 7 - . = x 3 , R O ) p ",
"K $ g N J x g r G c 7 7 m G O g x J N g i L K $ g N J ( g $ I L Z < b J O g O J m < 7 c G $ g x J N g $ K K $ g N J x g O G c 7 ",
"b   M O K i = S L N 8 % x K g = 7 K / % ) N c h = _ I $ = h L N 8 % x K < = < K x % 8 N L V = $ K O =   c b   M O K Z = g K ( 8 ",
"V 6 * : x 4 0 W $ 8 , u % O E 0 + P B & ^ h 7 # * o x 3 y # $   . & = O l 0 ; O = u [ ) $ - y 3 x C * p 7 S 1 } q x s 0 e r % j ",
"i Q # % N q p 4 x g e - h x 3 p k N 8 # ; Z O s p = N A p s O 7 Y -   N o p o D   - w < x v p B N M ! R r $ l # 8 N : p 3 x V e ",
"I O $ c H N $ x J K r $ L J x $ N H c $ O K G x $ b H b $ x J K O $ L J N $ D J L $ O K J x $ N H m $ P G I O $ c H N $ x J K r ",
"( = o Z L V o % m O q : O c 8 o   L $ C t x N = o < L g o % b x B k $ L   o  .c _ F q x m % o S L 7 o = N D A C i L h o 8 c O q ",
"h ^ 0 C P s X ' $ | u & = r e 2 l O q y [   7 6 > 3 P o.> p Z   , * B O Y 2 w O = ~ , 8 $ # X 4 P o > 1 < V . 0 : O R 2 - $ M 9 ",
"O 3 l   b % Y F N i s + 7 N q Y = b S l 4 r x o ; 8 m 8 Y o x $ 4 Q g b A Y B N < R U $ D k Y % m   ; d x O 3 l h b = Y : N 7 U ",
"J D P L H c O N H I x x K H b O m H K x ..G J N O L H c O N J G x x K H b O b H K x x G H N O c H L P N J J D x K H m O N H I x "
};
