/* XPM */
static char *_674497219574[] = {
/* columns rows colors chars-per-pixel */
"64 64 192 2 ",
"   c #0E0503",
".  c #0E0907",
"X  c #0A0709",
"o  c #07090E",
"O  c #0B090B",
"+  c #100501",
"@  c #120906",
"#  c #130C0A",
"$  c #17110E",
"%  c #18110F",
"&  c #050C14",
"*  c #0A0D12",
"=  c #000E1B",
"-  c #080F18",
";  c #100F10",
":  c #0C1016",
">  c #04111D",
",  c #0A141E",
"<  c #151314",
"1  c #191412",
"2  c #1E1917",
"3  c #13161A",
"4  c #13181E",
"5  c #1E1C1B",
"6  c #201916",
"7  c #231F1D",
"8  c #23201E",
"9  c #031423",
"0  c #0A1622",
"q  c #061826",
"w  c #0C1924",
"e  c #061B2B",
"r  c #0B1D2B",
"t  c #131A22",
"y  c #191E24",
"u  c #141F2A",
"i  c #061E30",
"p  c #081F30",
"a  c #201F20",
"s  c #0E202D",
"d  c #1D2226",
"f  c #14222D",
"g  c #1D2329",
"h  c #1F282D",
"j  c #072032",
"k  c #0A2334",
"l  c #0A2638",
"z  c #0D2A3C",
"x  c #142632",
"c  c #1A2731",
"v  c #142936",
"b  c #1B2A34",
"n  c #122C3C",
"m  c #1A2E3A",
"M  c #17303F",
"N  c #1C313D",
"B  c #232324",
"V  c #282625",
"C  c #272924",
"Z  c #23262A",
"A  c #26292C",
"S  c #2B2C2D",
"D  c #312E2D",
"F  c #2C3227",
"G  c #33312B",
"H  c #242E34",
"J  c #2C2E31",
"K  c #2D3134",
"L  c #23323B",
"P  c #2B353B",
"I  c #2E383C",
"U  c #333434",
"Y  c #333639",
"T  c #35393C",
"R  c #3C3C3D",
"E  c #403F3E",
"W  c #40403F",
"Q  c #0D2E41",
"!  c #112E41",
"~  c #0F3044",
"^  c #133245",
"/  c #1B3544",
"(  c #13364A",
")  c #183749",
"_  c #15394E",
"`  c #1B3B4D",
"'  c #173C50",
"]  c #193E52",
"[  c #203542",
"{  c #243944",
"}  c #2C3C44",
"|  c #223D4A",
" . c #2B3F49",
".. c #343D42",
"X. c #3C3F41",
"o. c #1C4156",
"O. c #1E4459",
"+. c #27404C",
"@. c #2B424D",
"#. c #354147",
"$. c #3E4143",
"%. c #3C4847",
"&. c #34454D",
"*. c #39464B",
"=. c #3C494F",
"-. c #224254",
";. c #2C4855",
":. c #21465A",
">. c #21495D",
",. c #2D4B5B",
"<. c #334A55",
"1. c #3E4B51",
"2. c #3A515C",
"3. c #244C61",
"4. c #2A4F61",
"5. c #275065",
"6. c #2A5266",
"7. c #2B556A",
"8. c #2E596E",
"9. c #345464",
"0. c #395562",
"q. c #3C5865",
"w. c #31576B",
"e. c #32596D",
"r. c #3B5B6A",
"t. c #2F5A70",
"y. c #325C71",
"u. c #366175",
"i. c #3B6376",
"p. c #376378",
"a. c #3B657A",
"s. c #3E687D",
"d. c #434444",
"f. c #484747",
"g. c #464748",
"h. c #46494B",
"j. c #4B4B4B",
"k. c #50504F",
"l. c #414D53",
"z. c #4F5050",
"x. c #4A555C",
"c. c #535353",
"v. c #545758",
"b. c #57595B",
"n. c #5C5C5C",
"m. c #405C69",
"M. c #535C62",
"N. c #5C5F62",
"B. c #43636E",
"V. c #5F6060",
"C. c #496775",
"Z. c #4A6975",
"A. c #466A7A",
"S. c #466B7C",
"D. c #646464",
"F. c #686767",
"G. c #686867",
"H. c #626669",
"J. c #6C6C6C",
"K. c #706F6F",
"L. c #70706F",
"P. c #677075",
"I. c #747474",
"U. c #787777",
"Y. c #787877",
"T. c #7C7C7C",
"R. c #807F7F",
"E. c #80807F",
"W. c #3F6B80",
"Q. c #426D82",
"!. c #467286",
"~. c #4B7486",
"^. c #4E7789",
"/. c #517A8D",
"(. c #727B81",
"). c #7A8084",
"_. c #828282",
"`. c #808589",
"'. c #8B8B8B",
"]. c #8B949A",
"[. c #939393",
"{. c #979898",
"}. c #9B9B9B",
"|. c #A0A09F",
" X c #9BA3A8",
".X c #A3A3A3",
"XX c #ABABAB",
"oX c #A4AEB3",
"OX c #B3B3B3",
"+X c #BDBDBD",
"@X c #C4C4C4",
"#X c #C8C8C8",
/* pixels */
"o.o.>.3.e.e.@.I.#X`...7.s.y.s.s.s.a.&.`.#XY.#.7.W.s.W.W.w....X+XD.&.a.S.!.a.7.9.h.OXXXv.9.u.a.p.u.Q.9.n.@X}.$.-.O.o._ j 9 e e q ",
"j s x ` w.w.{ G..XD.I ,.p.8.S.!.Z.B.&.I.|.v.L ,.s.S.!.W.6...'.[.j.*.B.a.a.u.5.9.h.}._.$.2.y.y.y.y.!.r.v..XL.Y c s s j e > > > = ",
"> o . w k k x n.{.D.T / M ^ ` | F d h J.[.n.H n ^ ( ^ ^ ^ P (.'.k.G 8 s v z l f R '.Y.g./ ^ m n ) ` L z.{.L.R $ O & > 9 e 9 = 9 ",
"e s O & & * 4 G.|.V.T : : 9 9 * . O 5 I.}.n.U > = - & = : S '.'.c.V # . . - - : R }.T.h.y - * , 9 > 3 z..XJ.R % w j 9 z _ n k ^ ",
">.>.f > = o < v._.k.S O & e 9 = = & y D.Y.j.B & - X . X . V I.U.X.d - o O & - > Y T.G.Y < X o 0 e = , g._.n.D d | >.] o.6.5.3.y.",
"a.4.` k 9 9 y c._.n.A , : q q q 9 e g n._.c.Z r l q q q q A J.T.g.f q q j v q q Y Y.I.R y 0 , , e q w d._.D.T / o.u.7.u.a.7.7.8.",
">.` _ ' ( ) N c._.n.P ) ` ` >.o.O.o.L n._.c.K ` o.:.>.>.] P J.Y.g.P O.o.3.>._ z T Y.I.R | o.) ` o.O./ d.E.D.Y / _ o.O.8.y.3.3.5.",
">.o.o.3.7.7.@.v.T.k.I 6.8.8.e.8.y.e.@.n.Y.g.} 6.y.!.u.y.7...J.I.$.@.8.8.y.y.8.4.X.Y.D.T ,.t.8.8.e.y.,.h.R.b.Y / o.>.7.Q.Q.t.t.t.",
"S.e.u.~.~.^.2.z.Y.c...A.~.~.~.~.~.~.1.b.U.j.#.a.u.^.~.~.S.*.K.R.f.2.S.^.~.~.~.A.$.R.K.W q.~.~.~.~.~.m.h._.D.R q.w.i.~././.~.~.~.",
"1...%.1.=.=.#.W j.d.T *.l.=.=.l.l.l.T d.j.R T %.#.1.h.l.h.R K.'.c.T 1.1.1.1.l.%.X.(._.f...1.l.1.h.l.#.j.'.T.X.#.#.%.=.l.l.l.l.2.",
"J.J.L.J.L.L._.'._.[.I.L.J.L.L.L.'._.'.|.E.D.J.K.J.L.K.I.`.v.'.{.k.j.J.L.J.T.[.F.j.}.'.g.c.J.K.J.J._.U.b..XY.E n.K.K.K.'._.'.|.(.",
"Y.T.L.Y.T.I.T.[.'.[.'.T.L.Y.T.I.'.'.'.+XXXU.Y.Y.I.Y.Y.U._.c._.'.j.h.L.T.I.U.[.I.f.[.Y.d.n.I.U.T.I.T.I.v.}.K.R n.U.T.I.`.'.'.OX.X",
"h.g.E W f.W W f.f.k.c.f.R d.g.W j.c.f.V.D.j.g.d.R g.g.R W R `.[.f.G R f.d.d.c.d.d.[.T.X.R d.d.g.d.W R c.|.K.Y Y d.g.d.j.c.g.n.N.",
"b f t t t c H W z.T S c d c b L S 7 B d.k.Y B t t t t t t J _._.$.d t t t d h y R [.U.T %.<.@.{ { <.*.z.{.D.U h b b L  .P h b f ",
"Q i 9 9 e ~ N c.T.c.H z j z ~ ^ 3   2 n.Y.j.d , = = = = = A K.I.W t > = = = = > U U.F.R 0.y.5.o.O.a.A.j.R.n.U ^ Q Q _ o.n k ! z ",
"Q z q l ( o.{ v._.n.K z z k s q # + 2 n._.v.d = = = = = = h K.T.j.t > = = = = , U T.I.X.;.7.3.' o.s.A.j.).J.Y ) ~ Q ' >.^ ! ' ' ",
"' Q i ! ] O.{ c._.v.J z l q O   + + 6 n.T.z.B = = = = = = A J.U.d.t = = = = = , U T.J.R | 5.3.] O.s.A.j.E.V.Y n ~ Q _ o.( ~ o.O.",
">.^ Q _ O.' m c.T.c.H v e j # +   + 6 n.T.f.g = = = = = = Z K.I.$.t = = = = = - J U.F.Y ! O.>.] 3.s.A.j.R.b.S x Q ~ ' o.' ~ ' 3.",
"] n l _ 3.o.m c._.n.K v q e * +   + 2 n._.c.g = = = = = = Z K.T.f.t = = = = & X U T.I.R x _ _ _ O.p.r.j._.F.K 0 j ( ' o.o._ ( o.",
"Q _ ( Q ] >./ z.T.N.A 9 = = . + + + 2 b.T.v.B = = = = = = A F.T.f.y = = = & X # K I.K.R t 9 p ( O.5.,.h.T.F.K , 9 l _ ' ] ( ( ' ",
"r ` ) z ! _ L j.Y.n.A , , - @ @ @ @ 6 c.T.c.B 9 - 9 - = - Z F.I.f.t = , > = - 3 K K.K.R t = r Q ( ` +.$.Y.D.U , , k m ^ ~ ( ^ ) ",
"J T T I I Y K H.|.N.U S J J K D U U S I.}.v.D J K K J K Y U '.'.j.J J J J U Y J E }.R.R J J U Y I ..R c..XI.Y S J P I T #...#.} ",
"I.Y.U.U.U.U.c.V.{.N.d.J.U.U.U.Y.{.'.k.J.[.v.f.I.I.U.I.R.[.b.T.'.j.z.U.U.U._.}.I.f.'.Y.d.n.U.U.U.U.'.R.c.[.J.W D.U.U.Y.[.[.[.XX].",
"I.U.F.K.U.J.f.F..XF.z.J.F.I.I.J.R.R.j.U.}.n.c.J.J.I.I.J.U.z.'.[.c.c.F.U.K.I._.J.j.}._.k.V.J.K.I.J.I.J.b..XI.j.n.L.U.J.Y.E._.XXoX",
"$.d.T R W R S n.[.v.R R Y R R T f.f.U J.'.k.R R Y R R Y T Y R.R.f.Y Y E R R j.W X.'.K.d.E U R X.R T Y j.[.V.R U R X.T f.j.W z.M.",
"{ / [ m v d 7 k.T.v.C 1 3 w t t 7 6 8 n.T.j.B t t w t 4 t A K.I.d.y w t 3 t a y Y U.J.Y y t w 0 < < y d.R.V.K t 3 w x / { [ c r ",
"O.o.o.( Q w 1 c._.n.V @ X o & = X + 6 n._.v.d > = = = = = A K.T.f.y = = = = & - K T.I.E 3 = 9 q o X 3 $._.F.J 0 = = k Q z ! v 0 ",
"7.3.o.( z w 1 c.E.c.V @ X o = = X + 2 n.T.j.d = = = = = = Z J.I.d.t = = = = = e U U.J.Y < > i q & & , d.R.n.J , = e l Q i l v 0 ",
"t.3.O.( l , 1 c.R.c.V @ o o & & &   2 n.Y.j.d = = = = = = Z K.I.W t = = = 9 i z Y T.F.Y % , 9 = = = r d.R.n.J 0 = k Q Q e l ! p ",
"3.o.^ k 9 & < c.'.F.V # X O o & = * 2 n.'.n.Z = = = = = = Z K._.z.t = = = = p p Y T.T.X.; = = = = 9 s d._.I.U ; & w j l l z :.>.",
"' ~ e = = = t n.}.I.A > = = = = = = t J.}.F.B = = = = = = A R.{.c.t = = = = = , Y [.'.d.t = = = = = 0 j.}.R.U #     & i Q ( y.Q.",
"^ v w 0 , , t b.'.c.Z , , , , , , , y F.`.j.Z , - , - 0 0 A T.T.d.y , , , , , , Y _.K.Y t , > , , , t z..XI.G 1 # # 3 p v / ,.r.",
"$.$.$.X.E X.f.z.c.z.d.$.X.$.E $.j.g.f.n.c.W W X.X.X.X.W j.f.b.z.d.W R X.E $.j.d.z.n.f.E E X.E X.E d.d.j.[.K.Y U E E X.j.f.j.c.x.",
"T.R.R.T.R.R.{.|.{..X'._.T.R.R.R.|.{.|.+X|.I.R.R.R._.R._..X[.|.}._.R.R._.R.'..X[.OX+X_.T.R.T.R.R.T.[.'.N..XF.E J.R.R._.}.}.}.+X X",
"J.F.n.F.J.D.F.K.K.T.T.F.n.F.F.V.K.I.I.|.}.F.J.D.n.F.F.n.K.K.I.R.U.V.V.J.D.D.U.K.R.XXT.F.J.V.D.J.D.D.n.z.'.b.Y j.F.F.V.J.I.K.{. X",
"X.T K K U J J R X.E E U J U U J X.X.U g.z.X.U U J U U J U Y W d.W K K U K Y d.Y R z.d.R U J J U J D J d.R.D.U S U U U $.d...=.1.",
"| / n r , , t f.K.j.V 0 > , , , t w y k.J.f.a 0 , , , , 0 A n.D.X.y , 0 , 0 t t J F.n.Y t , , , , , t d.R.F.D t , , m ) ! ,.r.` ",
"3.] ! e = = t z.R.k.a > = = = = = = y n.R.j.B = = = = = = Z J.I.X.t = = = = = = U U.F.Y , = = = = = , $.R.b.D ; X = ! ( ! w.Q.:.",
"] ( Q e = = t c.R.b.A > = = = = = = t N.(.k.y = = = = = = A K.U.d.y = = = = = - Y T.K.Y , = = = = = , d.R.D.J # o r Q ~ ! :.t.3.",
"5.] Q e = = t z._.N.A > = = = = = = y n._.v.B = = = = = = Z J.R.f.t = = = = = > D T.K.R t = = = = = , $._.F.D # = ! ~ ~ p ! 7.y.",
"7.O.^ e = = w f.U.n.A > = = = = = = y z.T.c.a = = = = = = B V.I.j.t = = = = = - J J.K.X., = = = = = , R I.D.D ; o ! ( Q l Q ] y.",
"7.O.~ e = = t b.|._.J = = = = = = = y D..XU.Z > = = = = = Z T..XV.y = = = = = = U '.}.j., = = = = = 0 f.{.[.X., * / ( ! p i ! 5.",
"| [ ! u t t y k.[.I.J t t w t w t t y n.[.J.A t t t w t t A K.[.n.y t w t t t t U (.'.f.y w t w t t y $.'.R.Y y t [ [ m u w f | ",
"c.c.c.z.k.k.n.D.D.F.c.k.j.z.k.z.V.b.V.I.N.j.z.z.z.z.j.c.V.n.D.D.c.k.k.k.k.v.D.b.F.K.c.z.k.k.k.k.k.v.V.N.F.n.k.k.z.z.z.N.V.N.J.M.",
"R._.R.)._.R.[.|.[.XX[._.T._._._.|.}.|.@XXXI._._.T._._._..X[..X|.'.R.R._._.'..X[.OX#X'.U._.R.R._.R.[..X[..X[.'.R.R._.).}.}.}.@X.X",
"V.V.k.v.V.c.v.D.n.J.I.n.k.n.n.c.V.F.V.'.'.N.V.b.c.n.n.c.n.N.D.K.J.c.c.V.b.c.F.D.K.}.I.n.V.c.c.V.c.c.D.V.F.I.V.k.n.V.c.N.F.V._.`.",
"K K K S J S S Y d.R D A Z A A A U U J X.j.T D A Z A A A A D X.d.Y S Z A A J X.K D f.d.U V a S A S A V Y d.X.K A J J J X.X.J P } ",
") ] ` p e q y j.T.v.V ; - - > , ; ; y v.I.z.B - > = , = , Z D.K.d.y - > - q ! n Y K.F.R 1 # * , q t % E U.D.J u p Q ! ` ^ z n l ",
"^ ] ( e 9 9 t c._.n.A = = = = = o & y n._.c.Z = = = = = = Z K.T.f.t = = = = e v R Y.K.E < X - = * X $ d._.F.K z Q Q _ ] z l ! k ",
"q / ~ e i l x c.(.z.B , = = = = & = t n.U.f.y > = = = = = Z K.I.R t = = = 9 l n Y U.D.U 3 o 0 w   + # d.R.b.U / ! Q _ 3.! z ( ( ",
"9 p ~ Q l Q m c._.b.V = = - X X & = y n.R.c.B = = = = = = Z K.R.f.t = = = = e ^ T T.K.R ; o = * + X : d._.F.Y ! Q Q ' o._ ! ] ] ",
"9 q ! ~ ! Q c c.[.K.S # X X + + & = y V.[.D.g > = = = = - Z I.'.v.y 9 = = 9 p s Y R.`.d.1   X @ + X 3 d.'.U.T v Q Q _ ' ( ! ] 3.",
"u Z H L H H H D..XJ.D 7 7 7 7 7 B g A I..XV.A B g g B g B J '.}.j.Z d g d Z H B R }.'.X.B 7 7 7 a a Z z..XT.U H H H L I L H P  .",
"H.F.H.F.F.F.j.D.}.n.E V.F.J.D.J._.U.g.J.[.c.W D.F.F.F.K.(.c._.'.j.f.F.F.F.I.`.D.g.[.T.W z.F.F.F.F.U.K.c.{.K.E b.F.F.J.(.R.T.[.(.",
"R.R.I.T.R.U.z.D.|.n.W I.I.R.(.Y.[.'.c.I.}.c.f.I.U.(.R.U.'.v._.'.j.j.U.T.T.R.{.U.j.[.T.d.V.U.U.R.T._.T.n.}.K.R V.T.(.U.[.[.[.+XoX",
"k.j.d.f.j.f.U D.}.v.Y f.d.j.j.f.c.c.R K.[.k.Y f.d.j.j.d.f.E '._.d.U g.j.f.f.v.f.g.[.I.R E d.f.k.f.d.W c.}.D.U R f.k.d.z.c.z.F.P.",
"} } }  .} } L z.R.k.S y y y g y S V B n.T.j.Z y y y y y y J K.I.E B y y y Z J a T U.J.U 7 6 6 y y y y d.R.n.K H H H g L } L L L ",
"3.3.5.3.3.o.m v._.n.A q > = = = . + 6 n._.c.B 9 = = = = = Z J.T.f.t = = = = * @ D T.I.E % + + O = = w $.R.F.U n l Q l z _ _ ( _ ",
"o.o.O.3.o._ b c._.v.J z e & = = o X 5 n.R.k.a = = = = = = H K.U.d.y = = = &   @ D T.K.Y % +   o > q t d.R.D.K s e z Q _ o.] _ ~ ",
"' ( ' >.>._ m c.R.k.K ) n , = = 9 = y n.U.j.g = = = = = = Z K.K.R y = = = &   @ D U.F.U % o & & i l x f.(.n.J w e q k ( ] ] ( z ",
"( ( ( ' 3.] m c._.n.K ^ _ ~ e 9 p i u N.R.c.y > = = = = = Z K.T.j.t = = = &   @ U T.I.R ; & = p Q i r d._.F.J - = = p Q ( ' n q ",
"( ~ ~ ' 4.>.b z._.n.I o.) o.^ Q Q l c n.R.v.Z = = = = = = Z J.T.j.t = = = = X @ D U.K.X.t 9 9 p p i x d.R.F.K 0 = = l Q p ! x , ",
"3.o.( ( y.e.M $.H.z.} r.' ( _ ' ! i u g.H.j.y > = = = = = g z.V.X.t = = = = & - S b.V.T v Q ! ~ ~ z r Y H.H.J 9 9 i Q Q p k ! q ",
"Q.t.o.z | 7.] / [ f f o.O.( ~ ~ Q p 0 u c u 9 = = = = = = 0 u c u = = = = = = = 0 f c n ) _ ( ~ ( ! r ! ,.C.m = = l Q Q p l ( z "
};
