/* XPM */
static char *_673452562844[] = {
/* columns rows colors chars-per-pixel */
"64 64 238 2 ",
"   c #766E3D",
".  c #262E57",
"X  c #2A2F57",
"o  c #262F58",
"O  c #2A3057",
"+  c #283058",
"@  c #363458",
"#  c #363C61",
"$  c #483B58",
"%  c #563757",
"&  c #693956",
"*  c #773954",
"=  c #3C4056",
"-  c #3D4365",
";  c #5B485D",
":  c #535355",
">  c #684859",
",  c #774659",
"<  c #6B5451",
"1  c #53615A",
"2  c #6A6548",
"3  c #797547",
"4  c #716E52",
"5  c #736C58",
"6  c #474A67",
"7  c #574A67",
"8  c #4D516D",
"9  c #475A6F",
"0  c #575569",
"q  c #4C5373",
"w  c #595973",
"e  c #5C5D75",
"r  c #694866",
"t  c #695667",
"y  c #7A506C",
"u  c #765968",
"i  c #645977",
"p  c #5A6A68",
"a  c #5E6B75",
"s  c #69696A",
"d  c #7A7868",
"f  c #666576",
"g  c #626279",
"h  c #6B6C7D",
"j  c #706F71",
"k  c #757779",
"l  c #867A39",
"z  c #843752",
"x  c #843A53",
"c  c #8D3B53",
"v  c #933B52",
"b  c #9C3C52",
"n  c #BA3D4F",
"m  c #A63C51",
"M  c #B43D50",
"N  c #BA3E50",
"B  c #C73F4F",
"V  c #C93F4F",
"C  c #C43F50",
"Z  c #C93F50",
"A  c #894456",
"S  c #964657",
"D  c #89535A",
"F  c #955550",
"G  c #A0454F",
"H  c #A54856",
"J  c #B64553",
"K  c #A95859",
"L  c #AC5D59",
"P  c #B65D58",
"I  c #B95958",
"U  c #867944",
"Y  c #8F7050",
"T  c #A36E4C",
"R  c #A7665D",
"E  c #AE6159",
"W  c #B9655B",
"Q  c #B4695D",
"!  c #BC6B5E",
"~  c #8E5B66",
"^  c #996866",
"/  c #887271",
"(  c #B06963",
")  c #B57768",
"_  c #C9404F",
"`  c #C94B4D",
"'  c #C44652",
"]  c #C94351",
"[  c #CC4B54",
"{  c #D34F55",
"}  c #CA5859",
"|  c #D15458",
" . c #D45C5B",
".. c #C4625C",
"X. c #CB645D",
"o. c #C26A5E",
"O. c #CF695F",
"+. c #D5635D",
"@. c #D7665F",
"#. c #CB6C63",
"$. c #D36C62",
"%. c #DA6C61",
"&. c #C77B6A",
"*. c #DA7565",
"=. c #E27C68",
"-. c #5A8577",
";. c #768977",
":. c #9B8A2F",
">. c #8E8032",
",. c #968637",
"<. c #AB9531",
"1. c #AA9439",
"2. c #B59A3B",
"3. c #BBA22F",
"4. c #BCA237",
"5. c #D08E3F",
"6. c #D1B32F",
"7. c #C5A937",
"8. c #CEB234",
"9. c #D5B533",
"0. c #DCBA33",
"q. c #E4BB32",
"w. c #E9C52F",
"e. c #F4CD2F",
"r. c #F9D12F",
"t. c #E5C232",
"y. c #EBC631",
"u. c #F3CC31",
"i. c #F8D030",
"p. c #8F884E",
"a. c #958746",
"s. c #AC9147",
"d. c #BAA243",
"f. c #898974",
"g. c #CAAE46",
"h. c #CA8A6F",
"j. c #DA866D",
"k. c #E2826A",
"l. c #E58D6F",
"z. c #E98B6D",
"x. c #E79070",
"c. c #E99170",
"v. c #6D5786",
"b. c #696784",
"n. c #766A8C",
"m. c #697984",
"M. c #757582",
"N. c #7D7D86",
"B. c #7C7C89",
"V. c #845C97",
"C. c #8A6697",
"Z. c #8A6893",
"A. c #986BA5",
"S. c #A36DAC",
"D. c #A870AF",
"F. c #AA71B2",
"G. c #5B8C82",
"H. c #698887",
"J. c #75878B",
"K. c #72908D",
"L. c #799B97",
"P. c #72A898",
"I. c #63BB97",
"U. c #66BC99",
"Y. c #6DBE9D",
"T. c #73BB9E",
"R. c #7785A6",
"E. c #78B6A2",
"W. c #75BEA1",
"Q. c #7BBDA3",
"!. c #6EC09F",
"~. c #70C09F",
"^. c #6FC0A0",
"/. c #72C1A2",
"(. c #7AC2A5",
"). c #7EC5A9",
"_. c #779AC8",
"`. c #818088",
"'. c #848588",
"]. c #999387",
"[. c #898A94",
"{. c #87959B",
"}. c #92979D",
"|. c #B28E91",
" X c #85A79F",
".X c #8FA599",
"XX c #8F98A7",
"oX c #A19CA9",
"OX c #87AAA1",
"+X c #9AAAA8",
"@X c #86B7A5",
"#X c #8DB5A5",
"$X c #84BCA6",
"%X c #8BBAA7",
"&X c #8CBCA9",
"*X c #93B4A7",
"=X c #95B6A9",
"-X c #9BB5AB",
";X c #94BBAC",
":X c #9ABBAE",
">X c #95A2BE",
",X c #9DB5B0",
"<X c #9DBEB1",
"1X c #A5A5A9",
"2X c #A5ADAA",
"3X c #ABADAC",
"4X c #A3B4AD",
"5X c #AAB1AE",
"6X c #A1B8AF",
"7X c #ABAEB0",
"8X c #A6B7B1",
"9X c #ACB5B2",
"0X c #A2BDB2",
"qX c #ABBBB5",
"wX c #B3B5B4",
"eX c #B2B9B6",
"rX c #B8B7B8",
"tX c #B4BCB9",
"yX c #BBBBBB",
"uX c #83C5AC",
"iX c #88C2AA",
"pX c #8CC8B2",
"aX c #96C3B1",
"sX c #9CC1B2",
"dX c #A3C1B5",
"fX c #A7C3B8",
"gX c #ABC3BA",
"hX c #B3C4BE",
"jX c #B8C4BF",
"kX c #91A5C6",
"lX c #B3BBCC",
"zX c #C0BFC0",
"xX c #B6C6C0",
"cX c #BAC5C1",
"vX c #B6C8C1",
"bX c #BBC8C3",
"nX c #C2C5C4",
"mX c #CCD1D9",
/* pixels */
":X:XsX;X-X3XyXwXtXhX;X0XsX;XJ.- B.J.7XmXk wX'.Z.;.h 5 a.9.r.i.i.i.i.r.y.7.Y f m.`.Z.J.`.N.f 8 8 - 9 :XsX*X4X7XyX5XcXdX;X0X:X=X5X",
";X;X&X;X%X4XwX*XiXfX;X;X&X*XH.6 6 B.[.'.1X'.J.'.N.0 s.u.y.y.y.9.7.t.w.y.y.y.U g `.`.f.J.B.M.w - 6 9  X&X;X;X9X5X$XaX0X;X;X&X;X:X",
"5X9X%XW.&XjX-XiX(.*X5X-XK.;.U 7.U w [.3X[.;.Z.'.N.6 U 2.a.l l U U l U U 1.2.< b.`.`.B.B.`.k f 0 2.a.p.;.T.fXjXiXQ.$X-XwX*XW.$XgX",
"rXrX-X&XaXgXsXfX4XwXwX].4.q.r.9.: g k J.Z.'.J.k e 6 : l 9.t.0.9.6.6.0.w.2.1 2 5 h N.B.f.Z.J.h w p.e.i.8.p..XhXsX0X4XrXyX4X%X;XgX",
"yX1X5XeXdX;XqXjX-XjX].7.r.r.r.4.6 g M.Z.'.J.M.g h M.f 0 2 <.0.u.e.t.8.l   4.t.t.s.j Z.`.J.N.h e 4 w.r.r.w.p.L.hXdX-XyX3X3XwXsX:X",
"2XrX9X:XhXsX;X;X&XH.  0.r.r.y.4 w g h J.Z.h g M.`.J.`.M.g 0 2 :.1.U < 1 4.e.i.i.i.d.d J.Z.M.g g 0 4.r.r.y.3.5 @X:X;X+XeXyX:XbXsX",
"qX9X$X(.iX4X-X@XT.p :.<.7.0.7.2 e g f M.j a B.B.`.`.`.`.N.;.f 6 = 0 b.k 4.e.i.e.i.i.4.s ;.M.e e w 1.9.6.3.<.  K.$XiX,XeX;XW.iX4X",
"nXfX;X;X-XrXjX*X(.a l >.:.:.3 q g i g g s u / M.`.`.`.N.J.Z.N.8 # m.B.B.p.t.r.i.u.9.s.u f e g e e : ,.:.,.>.4 {.T.$XxXfX;X;X-X5X",
"dX0XhX:XwXrX3X4X0X#X;.5 3     8 i g w t ) ) h./ k J.`.`.'.'.J.8 - h '.N.p.q.r.e.d.) ) ) ^ t g g e : >.  3 d [.4X6X0XsX0XgXqXqXyX",
":X:XdX;X-X3XzXwXgXhX&X.XL.;.: 0 g e 0 ^ oXb.^ j.u N.`.J.J.;.Z.8 - b.J.N./ 9.r.2.) j.].XX7 u w g e 6 1 K.{.2X3XyX5XjXdX;XdX:X-X5X",
";X;X&X;X;X4XeX;XiXdX-X;X&XE.9 q g 8 ^ ^ R.- t ^ j Z.Z.f.Z.f.;.8 - h Z.;.k 2.i.g.5 ~ Z.m.@ ^ t e e - m.iX&X:X5X5X$XaXdX;X;X;X;X:X",
"5X9X#XW.&XjX,X$X$X*X5X8X@XP.9 6 g 8 h.^ # # w h N.J.J.`.`.J.Z.8 6 h `.`.j a.g.s.v.v.v.# @ h.u e w - m.Q.(.dXjX&X$X$X-XwX*XW.$XgX",
"wXrX-X&X;XhXsXfX8XwXrXwX;XE.q - w t ) ^ 0 k Z.J.`.`.Z.J.J.'.k 8 - h Z.k b.M.Z.A.D.D.A.V.r ( ~ i 8 - m.;X%XdXgXdX0X4XrXrX4X;X;XfX",
"yX3X5XwXsX;XdXbX:XyXwX2X9X9Xm.- 8 u u t M.J.k g k M.;.'.Z.J.`.8 - g v.n.A.S.S.A.n.n.A.S.A.y D w - 8 oX9XgX:X:XhXfX4XyX3X5X9XdX:X",
"4XwX9X:XvX<X;X:X;X*X2XyX-XsX{.- 6 8 f B.M.e 7 r t e f b.M.B.M.8 6 v.C.A.C.n.v.i > r 8 n.A.A.i 6 - q eX-XhXfX;X;X;X;X-XwXtX:XjXsX",
"qX9X@X/.&X4X*X$XQ.&XqX4XT.K.g p.5 e N.B.e , b N N & 6 7 e i e 6 # w b.e 8 7 7 b n M c 7 C.D.A.i U 4 j P.W.;X2X%X$XQ.:XwX*XT.iX:X",
"nXfX;X:X-XrXyX#XQ.dXbX+X;.1.w.8.0 N.`.h $ m | +.| c x M * & & & & & & & v N * M  . .] & 8 A.D.A.Y t.0.p.;.+XyX5X$XiXjXfX:X;X:X3X",
"sXfXhX:XwXrX3X4X,X<X+Xs.w.r.r.s.f `.M.i * J k.c.*.x m Z C ] C Z Z Z Z Z Z Z v L z.z.%.v % V.S.S./ 0.i.i.g.f.1X5X6X:XsX:XhXfXwXyX",
";X:X<X:X-X3XyXrXtX,X3 0.r.r.w.5 N.J.f & z ' z.c.h.* B C Z Z [ | | | { C Z Z M ~ l.l.=.v * r A.F.Z.d.i.i.u.4.k tX5XjXfX;XdX:X-X5X",
":X;X&X&X&X4XwX;X$Xk ,.7.q.e.w.4 N.N.w * x #.l.l.R b ] | $.%.=.k.=.k.*. . .[ N ~ &.x.=.H * r V.F.Z.d.y.u.8.4.U XX$XaX0X;X&X&X%X:X",
"5XeX%XW.;XjX:X%XT.1 ,.:.<.3.,.s Z.M.7 m x #.c.x.D J  .%. .[ [ [ [ [ [ [ +.%.[ c &.x.x.*.z v y F.C.U <.3.:.:.3 H.$X%X4XeX*XT.%XhX",
"eXeX4X&X:XfXdXfX4X+Xd   >.:.2 h J.f * m v *.l.h.S B ] ] _ B | @.+. .[ ] Z [ C m ( x.c.*.* b r A.A.t >.>.>.2 ;.<XdX4XrXrX4X;X;XfX",
"yX1X4XeXdX;XsXbX6XyX1XJ.s 4 2 f J.0 b c S =.c.) S B ]  .*.*.=.*.=.*.*.=.%.| Z M ~ c.x.K c N , Z.S.i 2 5 k L.=XhXfX4XrX3X5X9XgX;X",
"2XrX8X:XhXsX;X:X;X*X3XyX*XL.w m.Z.w b v K z.l.) b [ *.k.%. .{ ] ] [ |  .*.=. .M D c.z.S c Z H C.F.v.f +XfXfX;X:X;X;X-XeXtX:XjXsX",
"qX8X$X/.%X4X*X$XT.&XqX4XQ.P.m.B.;.i b v K l.j.~ J =.%.[ ` [ %.*.*.*. .] { | *. .c ) z.S x ] H C.F.n.m.Q.(.;X4X%XQ.Q.:XeX%X/.iX-X",
"nXfX;X:X-XrXyX#X$XdXbXsXaXL.a M.J.0 b c K x.j.~ N  .Z Z +.@.%.%.%.%.%.+.{ B [ | c ^ z.S v ] H Z.F.C.m.&X:X3XyX5X$X%XjXgX:X;X-X5X",
"sXdXjX:XwXrX3X4X6XaXdXgXvXK.h J.N.w b m S k.l.D n C C b z v J ' ] ' G z c N B _ c ^ *.x N V H Z.F.S.b.+X5XjX7X3X6X:XsX:XhX0XwXzX",
";X:XsX:X-X2XyXwXtXjX&X:X<XB.h '.k u n n x *.j.F n M & @ O X $ D D > @ X X @ z Z c ^ #.z ] Z H V.F.F.v.L.:X2X5XyX5XbXfX&XdX;X-X2X",
":X*X%X&X&X4XtX;XiXdX-X;X%XH.h J.h , n n x $.j.D m % O @ ; O + + + + + @ $ @ @ v c ^ *.A N Z b q S.F.v.K.&X;X9X8XQ.aX0X-X%X&X%X:X",
"5XeX%X/.aXjX:X%X$X*XwX9XP.p / '.b.c B J x *.k.D * @ > $ @ O + + + + + @ @ > $ % * ^ z.S c Z M y A.F.j G.Q.gXhX*X@X$X4XyX-XW.%XhX",
"eXrX4X;X;XhXdXfX6X9XrXrX{.2 g.f.0 b _ _ c W j.u $ > > @ . . O . + + . o . $ , ; % ^ *.S b Z ] * n.h.2.s #XdXhXfXdX4XwXyX5X;X;XfX",
"rX3X5XeXdX;X:XjX-XjXwX3X{.2 q.8.~ M _ _ v H j.; $ A @ X O O . O + + X . . . > < O ^ #.z C Z ] A s.u.3.f qX:X;XgXfX-XrX3X9X5XgXaX",
"4XwX8X;XhX<X;X;X;X=X4XyX{.2 w.r.5.C _ V v H j.; , < + . . + + + + + o + + o @ D $ ^ #.* C V V ` q.r.7.p fXgX;X;X;X;X*XwXrX;XjXdX",
"Y.@X$X/.W.Q.Q.Q.Q.;XqX4XT.p 3.r.5.M _ B J x #.t > 6 . + + + + + + + + + + o @ > $ ^ K b V Z V G 0.w.U -.Q.;X4X#XQ.$X0XqX#XT.iX-X",
"uXY.^./.W.Y.Y.Y.W.<XbX<XaX;.:.r.s.v V B C * } ) > X . + + + + + + + + + + O . $ < j.S m Z C V , 8.q.2 L.:X5XyX5X$X%XhXfXaX;X-X5X",
"(./.~./.(.(.).W.:X:X<XgXxXK.a.w.1.b B B C c K ( $ . . + + + + . + + + + + O . O t *.c M Z B Z A 8.7.k 8X5XnX3X3X6X6XsX:XhXqXwXnX",
"Y.Y./.U.U.uXpXW.fXhX;X<XsX X4 0.9.F n V V m * K @ . . . . . . . . . . . . . . . > ..z C _ _ G T e.>.J.0X*X4X9XyX6XjXdX;X0XaX-X2X",
"I.U.^.W.Y.Y.^.!.).dX:X#XiXOXp 8.q.F N V V J c K ; . . 6 ; ; ; ; ; ; ; ; ; O + @ ~ S b Z _ _ v ,.e.U K.iX%X;X5X4XQ.aX0X*X%X%X%X:X",
"U./.I.Y.(.(./.(.@X-X9XqXT.$XH.a.t.F N V _ _ c & % X X < R R R E R R R R R @ . @ A % M _ _ _ G 1.6.d +XQ.$XgXjX%X%X%X4XyX:XT.%XhX",
"/./.^.U.(.).^./.*XwXrXwX:XaXL.3 t.2.m C _ _ b @ O X @ S P P P P P P P P K ; + + X % N B B N F q.<.k 3X-X&XdXhXfXdX4XwXyX5X:X;XfX",
"(.pX/.^./.Y.Y.W.*XtX9X9X5XtX<Xp 3.2.G ` ` _ C & . . % J o.o.o.o.o.X.o.X...A X . @ b V B [ J Y q.U '.wX5XgXsX;XgXfX-XwX3XwX9XgX:X",
"/.(.U./.(.U.Y./.%X;X5XrX-XsXhXK.3 9.F } } B B m $ . % m L L L L L K L L I A . . * B V B +.K 2.7.d 1XyX-XfXfX;XaX;X;X-XwXtX;XhXdX",
"aXaXW./.Q.*X#XW.(.;XqX-XT.T.:X}.4 9.Y } @.] B Z v $ % I X.X.X.+.X.X.X.X.X.v @ & n _ B ` *.F 8.<.k 8X-XT.$X=X4X*XQ.$X0X9X#XT.$X-X",
"nXfX:X:X4XrXyX*X$XsXjXdX:X:X4XyX`.:.7., %.[ B _ B n * K E E E E E E E E P c * B _ V V +.X.Y 9.2 OXhX;XaX;X3XyX9X$X%XhXfXaX;X4X9X",
":XdXbX:XeXrX1X4X0X;XsXhXjX-XyXwX'.p.8.F } | Z C B B z I O.O.O.O.O.O.O.O.O.A z _ _ _ [ %.K 1.3.j #X:XgXxX4XnX3X2X6X0X;XsXjXqXeXnX",
";X;XdX;X-X3XyXwXeXgX&X:XsX;X4X3XeXk 3.1.F =.| Z B B z K Q Q Q Q Q Q Q Q W A c _ ' ] @.@.A 7.U {.vX;X<X<X;X2X3XrX5XhXdX;XdX;X:X5X",
"-X;X%X%X&X6XwX%XiXsX-X;X%X%X;X5X9XH.a.9.T &.k. ._ J z I ................} A z _ _ @.l.Q 1.7.p $X<X-X*X&X$X;X5X4XQ.pX0X*X%X%X%X:X",
"5XyX%XT.aXjX:X;X$X-XwXwXT.(.0XjX;XE.5 9.d.K l.k.%.' z K W Q Q Q Q Q Q Q W A z  .*.x.#.Y w.,.H.iX-XtX8XW.iXgXjX;X&X%X4XyX:XT.%XjX",
"rXrX4X;XsXfXdXfX6XwXrXwX-X;X0XgX0XfXm.,.w.Y W z.c.$.x H P E P P P P P P } A A k.c.k.F 7.6./ -X4XwXyX7X-X;XdXgXgX0X4XrXyX3X:X;XfX",
"wX3X5XwXgX:X:XhX-XtXwX9X5XtXdX;XdXgX Xs 3.6.T } k.$.x P o.o.o.o.o.o.o.W ..A A k.*.E s.0.,.J.fX=XwX7XrX9XhXsX;XgX0X-XwX3XeX9XgXaX",
"4XwXqXaXbX:X:X;X;X#X4XyX-XsXhX;X;X;X;XOX/ 7.0.l S G * H E L L L E E E E P A * G D 1.t.,.H.iX;X;X=X5XyX:XgXgX&X:X;X;X-XeXtX;XhXqX",
"Y.#X$XY.W.T.(.T.(.iXT.#XiX(.T.T.W.Q.Q.<X+Xf.2.w.4.l > I X...X.X...X...X.X.x : 1.0.9.a.K.4X:X$XQ.iX$X@XQ.W.T.W.W.Q.$X0X9X#XW.iX-X",
"uX/./././.!.!.U.U.uX).!.!././.!.^.Y.$XfXxX*XJ.U 1.:.< J E E P L E E E T P x   <.,.d '.4XrXwX%XU.)././././.Y.~.Y.Y.&XhXgX:X:X:X3X",
"/./././.(.(.).~.!././.!.!././.).(.$X<X;X:XcXtX{.k 2 > J  .X.X.X.X. .}  . .A : 1 {.jX4XjXwX3X*X~././.Y./././.)./.;X<X:X;XvXqXeXnX",
"U.U./.U.U.).uX!././.U.!./.U.Y.uX).Q.xXgX;X<X<X;X8Xg z I Q Q Q W Q Q Q Q Q J > L.sXdX;X6X3XrX-X(./.U.Y.Y.U./.uX(.$XjXfX;XdX:X-X5X",
"U.Y./.!.!.U./././.!.I.!././.U.~.^.^.&X0X=X&X$X&X<XJ.b } ................} _ y .X*X$X$X&X4X4X$X(.Y.U./././.U.~././.iX:X*X%X$X%X:X",
"U.Y.I.Y.(.(./././.!.U./.I./.uX/./.iX$X4XeX-XW.$X4Xy J } ! ! ! ! ! ! ! ! W ' S [.wX@XW.<XcX<X(.^.Y.Y.!.I.(.uX/./.&X%X4XyX=XW.&XhX",
"/.(.Y.Y./.)./.Y././././.Y.Y.)././.T.4XrXrX5X;XOX'.S _ J W P P P P P P P P ] C ^ }.+X:XaXgXfXdX(././.^.Y.!.uX/.Y.Q.9XrXrX3X;X;XfX",
"(.pX/.^./.~././.!.!.uXuX/.!./.Y./.$X-XeX3X2XB.~ H C ' I ! ! ! ! o.W ! ! I ' C N S n.}.0X:X0XsXU.~.pXuX~.~.~.Y./.$X-XwX3XwX9XhX:X",
"^.(.U./.(.I.U.~.Y.Y./.(.I.(.(.I.Y.W.&X=X}.~ c S H m u D K L E E E R L L K i D m m c D '.;X;X&X!.~.(./.I.(.^.I.Y.$X*X*XwXtX*XhX0X",
"^.~././.!.U.~.!.Y.iXdXiXT.(.@X-X;XT.$XsX9XL.H.H.J.[.OX{.].|.|.].].].|.|.].E.P.[.K.H.H.OX4X:XW./.&XsX&XW.(.%X-X@XL.+X9X9X7X,XqXqX",
"pX^.^././.~.~.U.$XsXnXdX:X;X5XyXeX%X%XdXjXaXaX:X7XnX4X$XiXhXhXsX:X2XwXlX:X$X<XbXdXsXaX4XrXtX*X%XdXvXaX:X-X3XyXqXJ.kXmXlXlXlXlXlX",
"/./.^././.(.uXT.:X:X;XfXjX4XyX9X3X6X<XsX:XjXhX5XyX3X4X6X0X;XsXbXeXeXyX1X4X0X;X;XfXbX5XjXwX1X8X0X:X;XgXxX9XnX3X9Xm.kXkXR.R.R.R.R.",
"Y.U.^.Y.!.uXuX/.dXhX;X:XsX;X4X3XzX9XjXfX:XsXsX*X3X9XyX9XbXdX;XsXaX-X2XwXeXtXbX<X:XdX;X4X3XyX9XhXgX:X<X<X=X5X7XcXn.XX>X_._.kX_._."
};
