/* XPM */
static char *_673452268725[] = {
/* columns rows colors chars-per-pixel */
"64 64 63 1 ",
"  c #272826",
". c #2A2A2A",
"X c #353B2E",
"o c #393F32",
"O c #424639",
"+ c #45483B",
"@ c #4A4C3F",
"# c #4C4E42",
"$ c #4F5045",
"% c #55554B",
"& c #59594E",
"* c #555752",
"= c #677740",
"- c #687840",
"; c #6C6D68",
": c #717F62",
"> c #758559",
", c #7A895D",
"< c #768367",
"1 c #7F8F6F",
"2 c #7F8F70",
"3 c #808F6F",
"4 c #859266",
"5 c #81916F",
"6 c #889469",
"7 c #818576",
"8 c #849373",
"9 c #899777",
"0 c #8E977A",
"q c #8C9979",
"w c #929D7E",
"e c #8C8D84",
"r c #949E80",
"t c #96A181",
"y c #9AA585",
"u c #9CA689",
"i c #9EA889",
"p c #9FA293",
"a c #A2A68C",
"s c #A6AE8E",
"d c #A8AF8F",
"f c #A5AC91",
"g c #A8AF91",
"h c #AAB292",
"j c #AEB499",
"k c #B1B799",
"l c #B3BA9C",
"z c #B5BBA0",
"x c #B9BEA2",
"c c #BFBFA9",
"v c #BDC1A6",
"b c #BFC2AC",
"n c #C2C5AA",
"m c #C6C9AF",
"M c #C7CAB1",
"N c #CBCDB3",
"B c #CFD0B7",
"V c #D0D1B7",
"C c #D5D6BD",
"Z c #D7D8BF",
"A c #D8D8BF",
"S c #D7D7C0",
"D c #D9D8C0",
/* pixels */
"=,8q999999999999qqqq99qqqqq2qq2wq2qqq2w2qqqq2qwqq2wqqqq2qqqqqq1o",
"=>151111511112111111111111111122111111112211112211111111111211>X",
"->115115111111121111122122111111111122112222222222111111122222>X",
"=>58888889889889292122q2q2q2q2612q2qq22q2q222q22q222q26122q222<X",
"-4wssysyiiiiiiiiswssiiiisiiiiisiiiiisiiiiiiiisiisiiswsiiiiiisiq+",
"-6sdsdddddddsdddsshshhsssshsssssshsshhshshhssssshshsshhhsshhhhw+",
"-6addssdddsdssddshhhsssshshssssshshsshsssssssssssshssshhshssshw+",
"-6sdssyyyslzzlhdhswiwslxllhssssyyiklllhhhsiuuiivlxlshsswiwijzzi#",
"-6shdi822iNZCmksswq21smZZNlshhw11qxZSSvssst222sZCCmhsss921wvZZv&",
"-6wddw212yBZZmlssi111iNZZNkshwq1,wxZZZvisst222sbAAmkssi811qvZZv&",
"-6ihsw912iBZZmkssw111imZZNlssww112lZZZvhsst222sBAZmkssi821wvZZb&",
"-6shsswwwsxvvxhdhswwwszvvlhhhhwwyihvbbjfssitttsvvvzhddsywwslvvh$",
"-6dhsssssddhdddsshsshsssddsdhssshhshh>7pjsssshssddddsshdsssshhw+",
"-6whhshshsddddshshshsddsdsdssshsssshf+ <shssssssddddshsshshhshw+",
"-6hhdssssshhhhsdhssssshhhhhsssssshhhj*.;fjsssssjhdhsssssisshhht+",
"-6whsy989ibBBbkshwqq6ivVNmksssq91wlNbbeefftq2rsbBBvkshiqq8tzBBl%",
"-6hkdw661iVZZNlssw611iNZZNksssq11qzDSSvpist222iBZZmkshi911wvZZb&",
"-6whdw661iNZZmlshw111iNZZVkssiq11qzDCCvhhst222iBZZmkssi811wvZZv&",
"-6hksiwwwsvvvxhshiwwwsvvvvhhsswwqyjvvvlshsirttsvnnzdhsswwwylbbh$",
"-6wlshshsshshhshhshsshssshsssshhhshshhssssshfsssddddsshsssshdht+",
"-6ssssshsshsssdssssssssshssssshsssshshsshhsshsshddddddssshssddw+",
"-6whhssssshhhhdssssssshhkhhshsssssshhhshssssssshhddsdsssssshhhw@",
"-6ihhiq9qivNNnhssiw9qivBbvhhsswqqrlMMmlshsyqqqsmBmvkddiw99tzNNl%",
"-6shsw111iVZZNlssy211sbZZBlssiq11qzSCCvhsst222iBZZmkssi931wvDAc&",
"-6dhdw611wVZZmlssy212iNZZVlsss9119vCCZvhhst212iBAAmksss811qbDDb&",
"-6shhwq99ibZZvkssiq22ivCVbhhssq62qlBNNzssst989sMBBvjssi988wvBBx%",
"-6wkdshwiskhkhhshssssshkkhhsssissshjhjhssdssssshkhhhddssasshjjt@",
"-6whdhhhhhshsssssssssssssshshssshsssssssssssssssdsddddhssdssddw+",
"-6wkhdlhssshshshshshsshsssshsshhsddshsdsshsshshshdsddsdsshsgddw+",
"-6shsswwwslxxlhshiyywslvxlhsssiwtyjxvzhhssiyttslvzlhsdsyttikxva#",
"-6hhsw611iVZZmlssy111ibZZBhshiq11qzZZVvhsst818sBZCmksda881wxDAc&",
"-6dhsw611iVZZmlssy111iBZZBlssiq11qzZZZxhsst111sBAAmjssi811wnDDc&",
"-6whsw822yNZZmlssi921imZZNlssiw21qvCCZxdhsw212sBZZblsss911wvZZn&",
"-6ddssiwwslxxlhshswwwslvxlhshsiwtyhvzzksssiyyyszxxlhssswwwwknvs#",
"-6ssshshhhshhsshssshhssssshsssssdhsshssshssssssshhssshsskssshsw+",
"-6shssssshshsssshsshsshshsssshhsdssdssshsshhhshssssssshshhhsssw+",
"-6ddsssssshkhhhsshsssshhhlhsssssishhhhhhssssshhlhkhhhsssssshhlw@",
"-6whhi928imVZvlsswq22ivZVvksssq68wlVVBlhssy222ibVVvkhssq82wvVVz&",
"-6hhsw211iNZZmlshw111imZZVkshsq11qzZZVvhhsy222iBZZbhssi111wvDDv&",
"-6shhw212yVZZmlshi211imZZNlshwq11qzZZZxhssy222sBZZBlssi911wbDDv&",
"-6wlhww6qivNNvksswqqqinmNnhddswq9wlMmmzhssyq2wsbMmvjddiq99tzNNl$",
"-6shddhhsshhhhhshhssssshhhssssssssdhhhssddssssshhdhhsddsssshhht+",
"-6whddddhsssssssdhssssshsssdssdsshssssshdsssshssddsshshsssssddw+",
"-6hhdddssshhshshdsshsshsdhdshsshssshhhsssshssshsshhsdssssshsdhw+",
"-6ihswwwwivvvxhssswwwsxvvvhssswwwyhvbbkshsswwwsvbbxhddswrquknnh$",
"-4shsw961iVZZmlssi211iNZZNlsssq11qzZZZxhssw211iVZZmksdi921rvDAb&",
"-6ihkw611iBZZBlssw111imZZVlsssq11qzZZZvdssw211sVZZmkssi821rvDDb&",
"-6shswq21imZZmlssi911imZVNkssiw91qzCCVzhdsy828sVZZmhshi921rvCCx&",
"-6sshswwsskllkhsssiiiskllldsssiwyshlllhdhssyyislllkdddsiiyshlly@",
"-6sssshhshsssshsdssdsssssssdhssdsssssshssdsshsssssdssdsdhssdshw+",
"-6ssshssshhhsssssdshsssssshssssssdssdsddsdshsshsdddddssdsssssdw+",
"-4ssssiswhkklkhsssiiiskllkhsssssyshlllhshssyiiskllhdsdsiiishlli@",
"-6ihsw161smVZmkssy882imZVNksssq11wlCVVxhssy288sMZVnkssi921rvCZv%",
"-6sdhw611wVZZmkssy221imZZBkssiq119zZZZvdssy212sBZZmkdss821rvZDv&",
"-6shhw611iVZZmlssy211iNZZBkdsiq11qzZZZxhssw212iVZZmkdsi821wvDAb%",
"-6iddiwwwsvnmxkssiwwwixnvvhdhswwwwlbvblhssiwwwsvnnvhddswwqilnnj$",
"-6shhssssshshhssdssssdddshdsdddsssshhhssdddsssdddddddddsssshshw+",
"-4shsshsshshsshssshshsdsdddsddddssdsssdsdsdddddsdddddddsshssshw+",
"-4whssssssssssssssssssssssssssssssssssssssssssssssssssssssssssw+",
"-,qqq9qwqq9qqqq9qq9qqq9qqqqqq9qqqqqqqqqqqq9qqq9qq9qq99qqqq9q003o",
"->,11111111111111111111111111111111111111111111111111115111115:X",
"->111111111111111111111111111111111111111111111111111511111113:X",
"-,2q2929922qq6198998999698899889988998898998998898998888898898<X",
"-6wsississiishwsisiisiisiisiiisiisiisiisisiisisiisiiaississisa0O"
};
