/* XPM */
static char *_674495553871[] = {
/* columns rows colors chars-per-pixel */
"64 64 99 2 ",
"   c #D7BF67",
".  c #D8BF67",
"X  c #D8C068",
"o  c #D9C26D",
"O  c #DAC878",
"+  c #DCCD83",
"@  c #DED38E",
"#  c #DFD797",
"$  c #E0D898",
"%  c #DED38F",
"&  c #DCCE84",
"*  c #DAC979",
"=  c #D9C36E",
"-  c #D8C26C",
";  c #DAC877",
":  c #DED28D",
">  c #DED490",
",  c #DDCE86",
"<  c #D8C16B",
"1  c #D8C16A",
"2  c #D8C069",
"3  c #D7C068",
"4  c #D8C16C",
"5  c #D9C470",
"6  c #DBC979",
"7  c #DDD18C",
"8  c #DFD593",
"9  c #DDD28D",
"0  c #DCCD84",
"q  c #DBC97A",
"w  c #D9C471",
"e  c #DCCD82",
"r  c #DDD18B",
"t  c #DCCE85",
"y  c #DAC674",
"u  c #D8C26D",
"i  c #DBCA7D",
"p  c #DCCC81",
"a  c #DDCF87",
"s  c #DAC673",
"d  c #DBCB7D",
"f  c #DAC776",
"g  c #DBCB7F",
"h  c #DBC97B",
"j  c #DBCA7C",
"k  c #DBCB7E",
"l  c #D9C46F",
"z  c #DED491",
"x  c #DAC675",
"c  c #D9C36F",
"v  c #DDD28C",
"b  c #DDCF88",
"n  c #D9C673",
"m  c #DCCF86",
"M  c #DAC775",
"N  c #DBCA7B",
"B  c #DFD796",
"V  c #DED592",
"C  c #DAC777",
"Z  c #DCCC80",
"A  c #D9C572",
"S  c #DCCC82",
"D  c #DFD695",
"F  c #DED593",
"G  c #DDD089",
"H  c #DBC878",
"J  c #DBCC80",
"K  c #DCCD81",
"L  c #D8C067",
"P  c #DAC879",
"I  c #DCCB7F",
"U  c #DCCE86",
"Y  c #DAC573",
"T  c #DCCF87",
"R  c #D9C36D",
"E  c #DED390",
"W  c #DFD694",
"Q  c #DAC572",
"!  c #DDD088",
"~  c #DFD693",
"^  c #DDD18A",
"/  c #DDD08A",
"(  c #DBC877",
")  c #D9C571",
"_  c #DFD795",
"`  c #D9C573",
"'  c #D8C06A",
"]  c #DCCC7F",
"[  c #DCCF88",
"{  c #D9C26C",
"}  c #DFD898",
"|  c #DBC879",
" . c #D8C36E",
".. c #DED28E",
"X. c #D8C26B",
"o. c #DBCD82",
"O. c #DAC97A",
"+. c #DDCF86",
"@. c white",
/* pixels */
"        . X X X X .                 o O + @ # $ $ $ $ % & * =                 . X X X X .                 - ; + : # $ $ $ $ > , ",
"- < 1 2 3 . X X . 3 2 1 < - - - - 4 5 6 + 7 8 8 8 8 8 9 0 q w - - - - - < 1 2 3 . X X . 3 2 1 < - - - - 4 5 6 e r 8 8 8 8 8 9 t ",
"; y 5 u 2   X X   2 u 5 y ; O O O O 6 i p & a a a a a t p i q O O O O O y 5 u 2   X X   X - 5 s ; O O O O 6 i p 0 a a a a a t e ",
"+ d f 5 1   X X   2 5 f d + & & & & + p g i h h h h h j g p + & & & & 0 k ; w 1   X X   2 l f j + & & & & + p g i h h h h h j k ",
"% a d y <   X X   1 y d a % z z z z 9 t i x c = = = c y j 0 v z z z z > b k x <   X X   1 n j m % z z z z 9 t d M c = = = = y N ",
"B v p f <   X X   < f p 7 B $ $ $ $ V a j w X         5 h , z $ $ $ $ # 9 e C -   X X   1 M Z r B $ $ $ $ 8 a j A X         c * ",
"B 7 p f <   X X   < f p r B $ $ $ $ V a j w X X X X X 5 h , z $ $ $ $ # v S C -   X X   1 M Z r D $ $ $ $ F a j A X . X X   c * ",
"B 7 p f <   X X   < f p r B $ $ $ $ V a j w X X X X X 5 h , z $ $ $ $ # v S C -   X X   1 M Z r D $ $ $ $ F a j A X . X X   c * ",
"B v p f <         < f p 7 B $ $ $ $ V a j w X X X X X 5 h , z $ $ $ $ # 9 S C -         1 x Z r B $ $ $ $ 8 b i A X . X X   c * ",
"> G p H 5 = = = = 5 H Z G > z z z z v + 6 5 X X X X X c O e r z z z z > G p 6 w = = = = 5 H Z b > z z z z : + q 5 X . X X   = ; ",
"t e J d N q q q q N i J e & t t t t K q y u X X X X X u s q p t t t t t + J d N q q q q h i Z e & t t t t e N y = X L X X   - A ",
"P j I e U a a a a U + I j P O O O P f A c < X X X X X 1 = A f O O O O P N I e U a a a a U + I j 6 O O O P C Y c < X L X X   1 = ",
"o M k T > 8 8 8 8 > b g f R - - - - - < 1 X 3 X X X X X 2 < - - - - - o x k T E 8 8 8 8 z b g f = - - - - - < 1 2 3 X X X . X 2 ",
"2 Y k G W $ $ $ $ W G k s 2                 L X X X X .               X Q d ! ~ $ $ $ $ D ^ g y 2                 L X X X X .   ",
"2 s k G W $ $ $ $ W G k y 2   X X X X X X X X X X X X X X X X X X X   X Y d ! 8 $ $ $ $ D / g y 1   X X X X X X X X X X X X X X ",
"2 s k G W $ $ $ $ W G k y 2   X X X X X X X X X X X X X X X X X X X   X Y d ! 8 $ $ $ $ D / g y 1   X X X X X X X X X X X X X X ",
"2 s k G W $ # # $ W G k y 2 X X X X X X X 3 X X X X X 3 X X X X X X X 2 Y d ! 8 $ # # $ D / g y 1   X X X X X X X X X X X X 3 X ",
"w ( g U 9 % % % % 9 U g H w 5 5 5 5 c u < 2 X X X X X 2 < u c 5 5 5 5 w ( k t v % % % % 9 T g H ) 5 5 5 5 l u < 2 X X X X . 2 < ",
"i k I p e e e e e e p I k i i i i i q M 5 - X X X X X < 5 y q i i i i i k I p S e e e e e p I k i i i i i q M w - X L X X   < l ",
"! t Z j ; f f f f ; N Z & ! G G G G t d M = X X X X X u M j & G G G G G t Z j O f f f f ; N Z & ! G G G G U k f c X L X X   u y ",
"8 r p ; o 1 1 1 1 o C p ^ 8 D D D D % t h w X X X X X l q & @ D D D D W r S O = 1 1 1 1 o f Z / 8 D D D D > , N w X . X X   c O ",
"B v p f <         < f p 7 B $ $ $ $ V a j w X X X X X 5 h , z $ $ $ $ # 9 S C -         1 x Z r B $ $ $ $ 8 b i A X . X X   c * ",
"B 7 p f <   X X   < f p r B $ $ $ $ V a j w X X X X X 5 h , z $ $ $ $ # v S C -   X X   1 M Z r D $ $ $ $ F a j A X . X X   c * ",
"B 7 p f <   X X   < f p r B $ $ $ $ V a j w X       X 5 h , z $ $ $ $ # v S C -   X X   1 M Z r _ $ $ $ $ F a j A X         c * ",
"D r p f <   X X   < f Z r D # # # # z a j ) 2 X X X X 5 N U > # # # # B v p C -   X X   1 x Z ^ D # # # # V a i Q 2 X X X X 5 * ",
"r & N ` 1   X X   1 A N + r v v v v G 0 d ( Y Y Y Y Y ( i + G v v v v r & N s <   X X   ' A q + r v v v v / 0 k H s Y Y Y Y f j ",
"I q y c 2   X X   2 c y q I Z Z Z Z Z Z I g g g g g g g I Z Z Z Z Z Z ] q x l 1   X X   2 = y 6 g Z Z Z Z Z Z I g g g g g g g I ",
"s w = < X   X X   X < = w s y y y y f j p T r r r r r [ e j ; y y y y y w = - 2   X X   X < = 5 s y y y y f N p T r r r r r [ + ",
"2 X X X 3 . X X . 3 X X X 2 2 2 2 X = P + : B B B B B @ 0 q c 2 2 2 2 2 X X X 3 . X X . 3 X X X 2 2 2 2 X o O e 9 B B B B B % t ",
"        . X X X X .                 o O + @ # $ $ $ $ % & * =                 . X X X X .                 { O + : # $ $ $ $ > , ",
"X X X X X X X X X X X X X X X X X   o O + @ # $ $ $ # % & * =   X X X X X X X X X X X X X X X X X X X X   { O + : # $ $ $ $ > , ",
"        . X X X X .                 o O + @ # $ $ $ $ % & * =                 . X X X X .                 - O + : # $ $ $ $ > , ",
"1 2 2 X 3 . X X . 3 X 2 2 1 1 1 1 2 c 6 + 9 D D D D D @ 0 q 5 2 1 1 1 1 2 2 X 3 . X X . 3 X 2 2 1 1 1 1 2 = O e v D D D D D % t ",
"x A c - X   X X   X - c A x M M M M ( j p U / / / / / T S i H M M M M x A c - 2   X X   X < = A x M M M M ; j p U / / / / / T e ",
"p N M l 2   X X   2 c M N p p p p p p Z I k k k k k k k I J p p p p p p N M 5 1   X X   2 c y q Z S p p p p Z I k k k k k k k I ",
": t j s 1   X X   1 ` N t 9 @ @ @ @ r 0 d f ) w w w ) f i + / @ @ @ @ : t j y <   X X   1 A N & v @ @ @ @ r & k ( A w w w w M j ",
"B 7 p f <   X X   < f p r B # # # } V a j w X X X X X 5 h , > # # # # B v S C -   X X   1 x Z r D # # # } V a j A X X X X X c * ",
"B 7 p f <   X X   < f p r B $ $ $ $ V a j w X X X X X 5 h , z $ $ $ $ # v S C -   X X   1 M Z r D $ $ $ $ F a j A X . X X   c * ",
"B 7 p f <   X X   < f p r B $ $ $ $ V a j w X X X X X 5 h , z $ $ $ $ # v S C -   X X   1 M Z r D $ $ $ $ F a j A X . X X   c * ",
"B v p f <         < f p 7 B $ $ $ $ V a j w X X X X X 5 h , z $ $ $ $ # 9 S C 4         1 x Z r B $ $ $ $ 8 b i A X . X X   c * ",
"V / p ; = < 4 4 < = ; p / V W ~ ~ W @ & q 5 X X X X X c 6 + : W ~ ~ W 8 r p H c < 4 4 < = C Z G V W ~ ~ W % t h w X . X X   c O ",
"a 0 Z j | ; O O ; H j Z 0 a a a a b & j M  .X X X X X u y N + b a a a a 0 Z j 6 ; O O O O j Z + a a a a b & i M = X L X X   u s ",
"N d I p + 0 0 0 0 + p I d N N N N N 6 y 5 < X X X X X < l y H N N N N N i I p + 0 0 0 0 + S I d N N N N N 6 y 5 - X L X X   < c ",
"5 C k m @ > > > > @ T g ; 5 c c c c = - < 2 X X X X X 2 1 -  .c c c c c f k U ..> > > > % T g ( 5 c c c c = - < 2 X X X X . 2 1 ",
"2 s k G W $ $ $ $ W G k y 2               . X X X X X .               X Y d ! 8 $ $ $ $ D ^ g y 2               . X X X X X .   ",
"2 s k G W $ $ $ $ W G k y 2   X X X X X X X X X X X X X X X X X X X   X Y d ! 8 $ $ $ $ D / g y 1   X X X X X X X X X X X X X X ",
"2 s k G W $ $ $ $ W G k y 2   X X X X X X X X X X X X X X X X X X X   X Y d ! 8 $ $ $ $ D / g y 1   X X X X X X X X X X X X X X ",
"2 Y k G W $ $ $ $ W G k s 2                 X X X X X .               X Q d ! 8 $ $ $ $ D ^ g y 2                 L X X X X .   ",
"c f k T % V z z V % T g f c = = = = u X.1 2 X X X X X 2 1 < u = = = = = M k U @ V z z z E [ g ; c = = = = u - 1 2 3 X X X . X 1 ",
"q j I o.& t t t t & o.I i q q q q q O s l < X X X X X < c s ; q q q q q j I o.0 t t t t t e I i q q q q q O s 5 - X L X X   1 c ",
"U + Z i O.P P P P O.i Z + U +.+.+.+.+ N y  .X X X X X u y N e +.+.+.+., + Z i O.P P P P * j Z + U +.+.+.+.+ j M = X L X X   - Y ",
"z G p H c - o o - c H Z G z F V V 8 ..0 q 5 X X X X X c | + 9 8 V V V V / p H 5 - o o - c ; Z G z 8 V V 8 @ & q w X . X X   = ; ",
"B v p f <         < f p 7 B $ $ $ $ V a j w X X X X X 5 h , z $ $ $ $ # 9 S C 4         1 x Z r B $ $ $ $ 8 b i A X . X X   c * ",
"B 7 p f <   X X   < f p r B $ $ $ $ V a j w X X X X X 5 h , z $ $ $ $ # v S C -   X X   1 M Z r D $ $ $ $ F a j A X . X X   c * ",
"B 7 p f <   X X   < f p r B $ $ $ $ V a j w X X X X X 5 h , z $ $ $ $ # v S C -   X X   1 M Z r D $ $ $ $ F a j A X . X X   c * ",
"B 7 p f <   X X   < f p r B $ # # $ V a j w X X X X X 5 h , z $ # # # # v S C -   X X   1 x Z r D $ # # $ V a j A X X X X   c * ",
"@ m j s 1   X X   1 s j U @ % % % % 7 & i f 5 5 5 5 5 M j 0 r % % % % @ +.d y <   X X   1 ` j t : % % % % v t d f 5 5 5 5 5 x N ",
"e j f 5 '   X X   2 l M j e + + + + S Z I k j j j j j d I J S + + + + e j f 5 1   X X   2 c M N S + + + + e p I k j j j j j d I ",
"f ` l - 2   X X   2 - l ` f f f f f H i p t ! G G G G U p i 6 f f f f f Y 5 - 2   X X   X - c A f f f f f H j p t ! G G G G U e ",
"1 1 2 X 3 . X X . 3 X 2 1 1 < < < 1 l 6 + v W W W W W 9 0 q 5 1 < < < 1 1 2 X 3 . X X . 3 X 2 1 1 < < < 1 c H e 7 W W W W D @ t ",
"        . X X X X .                 o O + @ # $ $ $ $ % & * =                 . X X X X .                 - ; + : # $ $ $ $ > , ",
"X X X X X X X X X X X X X X X X X   o O + @ # $ $ $ # % & * =   X X X X X X X X X X X X X X X X X X X X   { O + : # $ $ $ $ > , ",
"X X X X X X X X X X X X X X X X X   o O + @ # $ $ $ # % & * =   X X X X X X X X X X X X X X X X X X X X   { O + : # $ $ $ $ > , ",
"X X X X X X X X X X X X X X X X X   o O + @ # $ $ $ # % & * =   X X X X X X X X X X X X X X X X X X X X   { O + : # $ $ $ $ > , "
};
